<svg width="48" height="40" viewBox="0 0 48 40" fill="none" xmlns="http://www.w3.org/2000/svg">
<path d="M29.3427 27.8594H18.1999C17.6871 27.8594 17.2714 28.2752 17.2714 28.7879C17.2714 29.3007 17.6871 29.7165 18.1999 29.7165H29.3427C29.8555 29.7165 30.2713 29.3007 30.2713 28.7879C30.2713 28.2752 29.8555 27.8594 29.3427 27.8594Z" fill="#6C8A9B"/>
<path d="M23.7713 39.0017C24.2842 39.0017 24.6999 38.5859 24.6999 38.0731C24.6999 37.5603 24.2842 37.1445 23.7713 37.1445C23.2585 37.1445 22.8428 37.5603 22.8428 38.0731C22.8428 38.5859 23.2585 39.0017 23.7713 39.0017Z" fill="#6C8A9B"/>
<path d="M46.6141 31.5713H44.7569V13.9285C44.7569 12.3925 43.5073 11.1428 41.9712 11.1428H39.557V6.49998C39.557 5.98722 39.1411 5.57141 38.6284 5.57141H35.8427V0.928571C35.8427 0.60673 35.676 0.307824 35.4024 0.138639C35.1287 -0.0303602 34.7869 -0.0459601 34.499 0.0979679L23.7713 5.46184L13.0438 0.0980607C12.7558 -0.0459601 12.4141 -0.0304531 12.1404 0.138732C11.8665 0.307917 11.6999 0.60673 11.6999 0.928571V5.57141H8.91424C8.4014 5.57141 7.98568 5.98722 7.98568 6.49998V11.1428H5.5714C4.03537 11.1428 2.7857 12.3925 2.7857 13.9285V31.5713H0.928567C0.41572 31.5713 0 31.9871 0 32.4999C0 36.0839 2.91589 38.9998 6.49997 38.9998H19.5928C20.1056 38.9998 20.5213 38.584 20.5213 38.0713C20.5213 37.5585 20.1056 37.1427 19.5928 37.1427H6.49997C4.25785 37.1427 2.38187 35.545 1.95036 33.4284H17.2713V34.357C17.2713 34.8698 17.6871 35.2856 18.1999 35.2856H29.3427C29.8555 35.2856 30.2713 34.8698 30.2713 34.357V33.4275H45.5922C45.1609 35.545 43.2848 37.1427 41.0427 37.1427H27.9499C27.4371 37.1427 27.0213 37.5585 27.0213 38.0713C27.0213 38.584 27.4371 38.9998 27.9499 38.9998H41.0427C44.6268 38.9998 47.5426 36.0839 47.5426 32.4999C47.5426 31.9871 47.1268 31.5713 46.6141 31.5713ZM37.6998 7.42854V24.1428H27.7047L35.3293 20.3304C35.644 20.1731 35.8427 19.8517 35.8427 19.4999V7.42854H37.6998ZM33.9856 18.926L24.6999 23.5688V7.07383L33.9856 2.43099V18.926ZM13.5571 2.43109L22.8428 7.07392V23.5689L13.5571 18.9261V2.43109ZM9.84281 7.42854H11.6999V19.4999C11.6999 19.8517 11.8987 20.1731 12.2133 20.3304L19.8378 24.1428H9.84281V7.42854ZM29.3427 31.5713C28.83 31.5713 28.4142 31.9871 28.4142 32.4999V33.4284H19.1285V32.4999C19.1285 31.9871 18.7128 31.5713 18.1999 31.5713H4.64284V13.9285C4.64284 13.4165 5.05939 12.9999 5.5714 12.9999H7.98568V25.0713C7.98568 25.5841 8.4014 25.9999 8.91424 25.9999H38.6284C39.1411 25.9999 39.557 25.5841 39.557 25.0713V12.9999H41.9712C42.4832 12.9999 42.8998 13.4165 42.8998 13.9285V31.5713H29.3427Z" fill="#6C8A9B"/>
</svg>
