<svg width="150" height="150" viewBox="0 0 150 150" fill="none" xmlns="http://www.w3.org/2000/svg">
<g opacity="0.66">
<path d="M75 70.4169C63.6287 70.4169 54.375 61.1632 54.375 49.7919C54.375 38.4207 63.6287 29.1669 75 29.1669C86.3713 29.1669 95.625 38.4207 95.625 49.7919C95.625 61.1632 86.3713 70.4169 75 70.4169Z" fill="#6C8A9B"/>
<path d="M116.25 116.25H33.75V111.667C33.75 93.9799 48.1417 79.5836 65.8333 79.5836H84.1667C101.854 79.5836 116.25 93.9799 116.25 111.667V116.25Z" fill="#6C8A9B"/>
<path fill-rule="evenodd" clip-rule="evenodd" d="M150 75C150 116.421 116.421 150 75 150C33.5786 150 0 116.421 0 75C0 33.5786 33.5786 0 75 0C116.421 0 150 33.5786 150 75ZM146 75C146 114.212 114.212 146 75 146C35.7878 146 4 114.212 4 75C4 35.7878 35.7878 4 75 4C114.212 4 146 35.7878 146 75Z" fill="#6C8A9B"/>
</g>
</svg>
