<svg width="40" height="40" viewBox="0 0 40 40" fill="none" xmlns="http://www.w3.org/2000/svg">
<g clip-path="url(#clip0)">
<path fill-rule="evenodd" clip-rule="evenodd" d="M27.04 9.97299C27.1743 9.83899 27.2809 9.67981 27.3536 9.50457C27.4263 9.32933 27.4637 9.14146 27.4637 8.95173C27.4637 8.762 27.4263 8.57414 27.3536 8.3989C27.2809 8.22366 27.1743 8.06448 27.04 7.93048L21.0825 0.422985C20.9483 0.288586 20.7889 0.181963 20.6135 0.109215C20.438 0.036468 20.2499 -0.000976563 20.06 -0.000976562C19.8701 -0.000976563 19.682 0.036468 19.5065 0.109215C19.3311 0.181963 19.1717 0.288586 19.0375 0.422985L13.08 7.93048C12.9457 8.06448 12.8391 8.22366 12.7664 8.3989C12.6937 8.57414 12.6562 8.762 12.6562 8.95173C12.6562 9.14146 12.6937 9.32933 12.7664 9.50457C12.8391 9.67981 12.9457 9.83899 13.08 9.97299H17.6075V39.9205H22.4475V9.97299H27.04Z" fill="#A5D9A1"/>
<path fill-rule="evenodd" clip-rule="evenodd" d="M36.2901 12.5195L28.8251 13.3945C28.5216 13.3978 28.2318 13.5212 28.0191 13.7377C27.8064 13.9541 27.6881 14.2461 27.6901 14.5495L29.7101 16.602L25.0601 21.327V40.002H29.9501V23.397L33.1751 20.132L35.4326 22.432C35.7363 22.4287 36.0263 22.3054 36.2394 22.089C36.4525 21.8727 36.5714 21.5807 36.5701 21.277L37.4251 13.672C37.4271 13.3688 37.3087 13.0771 37.0959 12.8611C36.8831 12.645 36.5933 12.5222 36.2901 12.5195Z" fill="#A5D9A1"/>
<path fill-rule="evenodd" clip-rule="evenodd" d="M12.505 22.1047C12.5044 21.7985 12.3825 21.5051 12.166 21.2887C11.9495 21.0722 11.6562 20.9503 11.35 20.9497L3.75003 20.0772C3.59835 20.0768 3.4481 20.1064 3.30784 20.1641C3.16758 20.2219 3.04007 20.3067 2.93259 20.4137C2.8251 20.5207 2.73975 20.6478 2.6814 20.7878C2.62306 20.9278 2.59286 21.078 2.59253 21.2296L3.46753 28.8296C3.46753 29.4696 3.98503 29.9871 4.62253 29.9871L6.83253 27.7797L10.1175 31.8346V39.8271L14.8675 39.9571V29.8946L10.3225 24.2846L12.505 22.1047Z" fill="#A5D9A1"/>
</g>
<defs>
<clipPath id="clip0">
<rect width="40" height="40" fill="white"/>
</clipPath>
</defs>
</svg>
