<svg width="30" height="30" viewBox="0 0 30 30" fill="none" xmlns="http://www.w3.org/2000/svg">
<path d="M14.8823 10.3535C15.1966 10.3527 15.4978 10.2274 15.72 10.0052C15.9423 9.78294 16.0675 9.48175 16.0684 9.16744V7.97709C16.0684 7.3278 15.5359 6.79102 14.8823 6.79102C14.2287 6.79102 13.6941 7.32887 13.6941 7.97709V9.16744C13.6941 9.81994 14.2287 10.3535 14.8823 10.3535Z" fill="#7E7E7E"/>
<path d="M12.509 15.0978H13.694V21.8243C13.694 22.4768 14.2287 23.0103 14.8822 23.0103C15.5358 23.0103 16.0683 22.4768 16.0683 21.8243V13.9107C16.0675 13.5964 15.9422 13.2952 15.72 13.0729C15.4977 12.8507 15.1965 12.7255 14.8822 12.7246H12.509C11.8554 12.7246 11.3208 13.2582 11.3208 13.9107C11.3208 14.5632 11.8554 15.0978 12.509 15.0978Z" fill="#7E7E7E"/>
<circle cx="15" cy="15" r="13.5" stroke="#7E7E7E" stroke-width="3"/>
</svg>
