<svg width="24" height="24" viewBox="0 0 24 24" fill="none" xmlns="http://www.w3.org/2000/svg">
<g clip-path="url(#clip0)">
<path d="M8.13513 -0.000933023C7.92128 0.03974 7.72869 0.154681 7.59137 0.323587C7.45405 0.492493 7.38084 0.704494 7.38467 0.922144V1.84522H4.06713C3.32867 1.84522 2.76929 2.40461 2.76929 3.14307V22.6145C2.76929 23.4452 3.32867 23.9991 4.06713 23.9991H19.8462C20.5847 23.9991 21.1441 23.4397 21.1441 22.7012V3.14307C21.2364 2.40461 20.6714 1.84522 19.933 1.84522H16.6154V0.922144C16.6154 0.677329 16.5182 0.44254 16.3451 0.26943C16.172 0.0963195 15.9372 -0.000933023 15.6924 -0.000933023H8.30775C8.27884 -0.00229316 8.24989 -0.00229316 8.22098 -0.000933023C8.19207 -0.00229316 8.16312 -0.00229316 8.13421 -0.000933023H8.13513ZM9.23083 1.84522H14.7693V3.69138H9.23083V1.84522ZM4.61544 3.69138H7.38467V4.61445C7.38467 4.85927 7.48192 5.09406 7.65503 5.26717C7.82815 5.44028 8.06293 5.53753 8.30775 5.53753H15.6924C15.9372 5.53753 16.172 5.44028 16.3451 5.26717C16.5182 5.09406 16.6154 4.85927 16.6154 4.61445V3.69138H19.3847V22.1529H4.61544V3.69138ZM6.46159 8.30676V11.9991H10.1539V8.30676H6.46159ZM7.38467 9.22984H9.23083V11.076H7.38467V9.22984ZM12.0001 9.22984V11.076H17.5385V9.22984H12.0001ZM6.46159 13.8452V17.5375H10.1539V13.8452H6.46159ZM12.0001 14.7683V16.6145H17.5385V14.7683H12.0001Z" fill="#7E7E7E"/>
</g>
<defs>
<clipPath id="clip0">
<rect width="24" height="24" fill="white"/>
</clipPath>
</defs>
</svg>
