<svg width="40" height="40" viewBox="0 0 40 40" fill="none" xmlns="http://www.w3.org/2000/svg">
<g clip-path="url(#clip0)">
<path d="M21.8508 0.0195312C24.1282 3.31792 25.9029 6.93645 27.1168 10.7564C29.8944 10.3207 32.5697 9.38352 35.0121 7.9908L35.729 7.54633C32.3287 3.24307 27.3124 0.522471 21.8508 0.0195312Z" fill="#AFAFAF"/>
<path d="M25.0179 13.9805C23.352 14.1712 21.6766 14.267 20 14.2672C18.3232 14.2669 16.6479 14.1712 14.9821 13.9805C14.6282 15.4879 14.4028 17.0227 14.3083 18.5683H25.6918C25.5972 17.0227 25.3718 15.4879 25.0179 13.9805Z" fill="#AFAFAF"/>
<path d="M20.0001 28.6016C18.5875 28.6028 17.1758 28.676 15.7707 28.8209C16.8044 31.9075 18.2256 34.8505 20.0001 37.5793C21.7746 34.8505 23.1958 31.9074 24.2295 28.8209C22.8244 28.676 21.4127 28.6028 20.0001 28.6016Z" fill="#AFAFAF"/>
<path d="M28.5477 21.4336C28.4603 23.1252 28.2316 24.8067 27.8638 26.4601C30.9163 26.9672 33.8519 28.0222 36.529 29.5741L37.3391 30.0788C38.8766 27.439 39.7871 24.4811 40 21.4336H28.5477Z" fill="#AFAFAF"/>
<path d="M37.3391 9.92188L36.529 10.4266C33.8524 11.981 30.9168 13.0384 27.8638 13.5477C28.2311 15.1984 28.4598 16.8768 28.5477 18.5656H40C39.7868 15.5186 38.8765 12.5613 37.3391 9.92188Z" fill="#AFAFAF"/>
<path d="M14.3081 21.4336C14.4034 22.9793 14.6298 24.5141 14.9847 26.0214C18.3191 25.6405 21.6861 25.6405 25.0206 26.0214C25.3736 24.5138 25.598 22.979 25.6915 21.4336H14.3081Z" fill="#AFAFAF"/>
<path d="M3.47093 10.4266L2.66087 9.92188C1.12357 12.5613 0.213206 15.5186 0 18.5656H11.4524C11.5402 16.8768 11.769 15.1983 12.1363 13.5477C9.08325 13.0384 6.14751 11.981 3.47093 10.4266Z" fill="#AFAFAF"/>
<path d="M12.8833 29.2422C10.1059 29.6781 7.43072 30.6147 4.98793 32.0064L4.27111 32.4523C7.67114 36.7557 12.6878 39.476 18.1492 39.9777C15.8715 36.6799 14.0968 33.0619 12.8833 29.2422Z" fill="#AFAFAF"/>
<path d="M20.0001 2.42188C18.2258 5.15037 16.8047 8.09282 15.7707 11.1788C17.1758 11.3245 18.5875 11.3977 20.0001 11.3982C21.4127 11.3977 22.8244 11.3244 24.2295 11.1788C23.1955 8.09282 21.7744 5.15037 20.0001 2.42188Z" fill="#AFAFAF"/>
<path d="M35.0121 32.0064C32.5694 30.6148 29.8942 29.6782 27.1168 29.2422C25.902 33.0622 24.1258 36.6802 21.8466 39.9777C27.3081 39.4759 32.3246 36.7556 35.7247 32.4522L35.0121 32.0064Z" fill="#AFAFAF"/>
<path d="M4.2753 7.55023L4.98783 7.99471C7.43029 9.38743 10.1055 10.3245 12.8832 10.7603C14.0983 6.94002 15.8745 3.32157 18.1534 0.0234375C12.692 0.526294 7.67567 3.24689 4.2753 7.55023Z" fill="#AFAFAF"/>
<path d="M11.4524 21.4336H0C0.212954 24.4811 1.12332 27.439 2.66095 30.0788L3.47102 29.5741C6.1481 28.0222 9.08375 26.9673 12.1363 26.4601C11.7684 24.8066 11.5396 23.1252 11.4524 21.4336Z" fill="#AFAFAF"/>
</g>
<defs>
<clipPath id="clip0">
<rect width="40" height="40" fill="white"/>
</clipPath>
</defs>
</svg>
