<svg width="24" height="24" viewBox="0 0 24 24" fill="none" xmlns="http://www.w3.org/2000/svg">
<path d="M20.25 11.25C19.7698 10.7698 19.1185 10.5 18.4393 10.5H18V7.5C18 5.9087 17.3679 4.38258 16.2426 3.25736C15.1174 2.13214 13.5913 1.5 12 1.5C10.4087 1.5 8.88258 2.13214 7.75736 3.25736C6.63214 4.38258 6 5.9087 6 7.5V10.5H5.56066C4.88153 10.5 4.23022 10.7698 3.75 11.25C3.26978 11.7302 3 12.3815 3 13.0607V19.9393C3 20.6185 3.26978 21.2698 3.75 21.75C4.23022 22.2302 4.88153 22.5 5.56066 22.5H18.4393C19.1185 22.5 19.7698 22.2302 20.25 21.75C20.7302 21.2698 21 20.6185 21 19.9393V13.0607C21 12.3815 20.7302 11.7302 20.25 11.25ZM7.5 7.5C7.5 6.30653 7.97411 5.16193 8.81802 4.31802C9.66193 3.47411 10.8065 3 12 3C13.1935 3 14.3381 3.47411 15.182 4.31802C16.0259 5.16193 16.5 6.30653 16.5 7.5V10.5H7.5V7.5ZM19.5 20C19.5 20.5523 19.0523 21 18.5 21H5.5C4.94772 21 4.5 20.5523 4.5 20V13C4.5 12.4477 4.94772 12 5.5 12H18.5C19.0523 12 19.5 12.4477 19.5 13V20Z" fill="#3F3F3F"/>
</svg>
