<svg width="50" height="50" viewBox="0 0 50 50" fill="none" xmlns="http://www.w3.org/2000/svg">
<path fill-rule="evenodd" clip-rule="evenodd" d="M30.2155 2.7L24.9999 0L19.7843 2.7L13.978 3.58125L11.3468 8.83125L7.16864 12.9562L8.12489 18.75L7.16864 24.5438L11.3468 28.6687L13.978 33.9188L19.7843 34.8L24.9999 37.5L30.2155 34.8L36.0218 33.9188L38.653 28.6687L42.8311 24.5438L41.8749 18.75L42.8311 12.9562L38.653 8.83125L36.0218 3.58125L30.2155 2.7ZM33.953 6.42812L29.2343 5.7125L24.9999 3.51875L20.7655 5.7125L16.0468 6.42812L13.9093 10.6937L10.5155 14.0437L11.2936 18.75L10.5124 23.4562L13.9093 26.8062L16.0468 31.0719L20.7655 31.7875L24.9999 33.9812L29.2374 31.7875L33.953 31.0719L36.0905 26.8062L39.4843 23.4562L38.7093 18.75L39.4843 14.0437L36.0905 10.6937L33.953 6.42812Z" fill="#AFAFAF"/>
<path d="M12.5 36.8545V49.9982L25 46.8732L37.5 49.9982V36.8545L31.1938 37.8107L25 41.017L18.8063 37.8107L12.5 36.8545Z" fill="#AFAFAF"/>
<path d="M20.2155 27C19.8488 27 19.5482 26.8973 19.3135 26.692C19.0935 26.472 18.9835 26.1933 18.9835 25.856C18.9835 24.712 19.4235 23.6633 20.3035 22.71C21.1982 21.742 22.6062 20.8033 24.5275 19.894C25.4955 19.4247 26.2288 19.014 26.7275 18.662C27.2408 18.2953 27.6002 17.9213 27.8055 17.54C28.0108 17.1587 28.1135 16.6967 28.1135 16.154C28.1135 15.3767 27.8495 14.7827 27.3215 14.372C26.8082 13.9467 26.0675 13.734 25.0995 13.734C24.0142 13.734 23.1855 13.9687 22.6135 14.438C22.0415 14.9073 21.7555 15.5967 21.7555 16.506C21.7555 16.8727 21.7848 17.1953 21.8435 17.474C21.6382 17.5033 21.4768 17.518 21.3595 17.518C20.7435 17.518 20.2155 17.3347 19.7755 16.968C19.3355 16.6013 19.1155 16.154 19.1155 15.626C19.1155 14.834 19.3795 14.1153 19.9075 13.47C20.4355 12.8247 21.1542 12.3187 22.0635 11.952C22.9728 11.5853 23.9848 11.402 25.0995 11.402C26.2435 11.402 27.2408 11.6 28.0915 11.996C28.9568 12.3773 29.6242 12.9273 30.0935 13.646C30.5628 14.3647 30.7975 15.2007 30.7975 16.154C30.7975 17.2247 30.4015 18.1927 29.6095 19.058C28.8322 19.9233 27.5928 20.7667 25.8915 21.588C24.6155 22.204 23.6622 22.7687 23.0315 23.282C22.4008 23.7807 22.0488 24.2573 21.9755 24.712H28.9715C29.6462 24.712 30.1522 24.91 30.4895 25.306C30.8415 25.6873 31.0175 26.252 31.0175 27H20.2155Z" fill="#AFAFAF"/>
</svg>
