<svg width="30" height="36" viewBox="0 0 30 36" fill="none" xmlns="http://www.w3.org/2000/svg">
<path d="M15 35.5L7.28001 31.3838C5.07917 30.2129 3.23872 28.4648 1.95616 26.3272C0.673601 24.1895 -0.00264133 21.7429 7.75322e-06 19.25V3C0.000669599 2.33716 0.264274 1.70166 0.732972 1.23296C1.20167 0.764266 1.83717 0.500662 2.50001 0.5H27.5C28.1628 0.500662 28.7983 0.764266 29.267 1.23296C29.7357 1.70166 29.9993 2.33716 30 3V19.25C30.0027 21.7429 29.3264 24.1895 28.0439 26.3272C26.7613 28.4648 24.9208 30.2129 22.72 31.3838L15 35.5ZM2.50001 3V19.25C2.49793 21.2898 3.05139 23.2916 4.10096 25.0406C5.15054 26.7896 6.65661 28.2197 8.45751 29.1775L15 32.6662L21.5425 29.1788C23.3436 28.2209 24.8498 26.7905 25.8994 25.0413C26.949 23.292 27.5023 21.29 27.5 19.25V3H2.50001Z" fill="#A5D9A1"/>
</svg>
