<svg width="30" height="26" viewBox="0 0 30 26" fill="none" xmlns="http://www.w3.org/2000/svg">
<path d="M18.4275 6.5C16.9364 6.49918 15.5067 5.90638 14.4525 4.85188L12.8962 3.29938C12.5456 2.94864 12.0703 2.7511 11.5744 2.75H4.6875C4.19633 2.74991 3.72474 2.94256 3.37411 3.28652C3.02349 3.63048 2.82183 4.09829 2.8125 4.58938L2.89875 6.5H1.02375L0.9375 4.625C0.9375 3.63044 1.33259 2.67661 2.03585 1.97335C2.73911 1.27009 3.69294 0.875 4.6875 0.875H11.5725C12.567 0.875212 13.5207 1.27044 14.2238 1.97375L15.7762 3.52625C16.4793 4.22956 17.433 4.62479 18.4275 4.625V6.5Z" fill="black"/>
<path fill-rule="evenodd" clip-rule="evenodd" d="M25.8938 6.5H4.10635C3.84588 6.49998 3.58827 6.55424 3.34994 6.6593C3.1116 6.76436 2.89777 6.91792 2.72207 7.1102C2.54637 7.30248 2.41266 7.52926 2.32946 7.77608C2.24627 8.0229 2.2154 8.28434 2.23885 8.54375L3.43322 21.6688C3.47532 22.1346 3.69003 22.5679 4.0352 22.8836C4.38038 23.1993 4.83108 23.3746 5.29885 23.375H24.7013C25.1691 23.3746 25.6198 23.1993 25.965 22.8836C26.3102 22.5679 26.5249 22.1346 26.567 21.6688L27.7613 8.54375C27.7848 8.28434 27.7539 8.0229 27.6707 7.77608C27.5875 7.52926 27.4538 7.30248 27.2781 7.1102C27.1024 6.91792 26.8886 6.76436 26.6503 6.6593C26.4119 6.55424 26.1543 6.49998 25.8938 6.5ZM4.10635 4.625C3.58525 4.62495 3.06985 4.7335 2.59304 4.94373C2.11623 5.15397 1.68847 5.46127 1.33705 5.84604C0.985624 6.23081 0.718248 6.68459 0.551976 7.17846C0.385704 7.67232 0.324186 8.19541 0.371346 8.71438L1.56572 21.8394C1.65039 22.7711 2.08027 23.6375 2.77096 24.2685C3.46166 24.8996 4.36329 25.2496 5.29885 25.25H24.7013C25.6369 25.2496 26.5385 24.8996 27.2292 24.2685C27.9199 23.6375 28.3498 22.7711 28.4345 21.8394L29.6288 8.71438C29.676 8.19541 29.6145 7.67232 29.4482 7.17846C29.2819 6.68459 29.0146 6.23081 28.6631 5.84604C28.3117 5.46127 27.884 5.15397 27.4071 4.94373C26.9303 4.7335 26.4149 4.62495 25.8938 4.625H4.10635Z" fill="black"/>
</svg>
