<svg width="25" height="18" viewBox="0 0 25 18" fill="none" xmlns="http://www.w3.org/2000/svg">
<g opacity="0.6">
<path d="M0.877563 2.85059V5.48243H24.5641V2.85059C24.5641 1.39716 23.3857 0.21875 21.9323 0.21875H3.50941C2.05597 0.21875 0.877563 1.39716 0.877563 2.85059Z" fill="#0099B5"/>
<path d="M24.5641 14.6943V12.0625H0.877563V14.6943C0.877563 16.1478 2.05597 17.3262 3.50941 17.3262H21.9323C23.3857 17.3262 24.5641 16.1478 24.5641 14.6943Z" fill="#1EB53A"/>
<path d="M0.877563 5.48047H24.5641V6.46741H0.877563V5.48047ZM0.877563 11.0731H24.5641V12.0601H0.877563V11.0731Z" fill="#CE1126"/>
<path d="M0.877563 8.77161V11.0745H24.5641V6.46875H0.877563V8.77161Z" fill="#F7BD29"/>
<path d="M3.64107 2.95518C3.64107 1.93797 4.38127 1.09447 5.35176 0.931294C5.24057 0.912871 5.12608 0.902344 5.00962 0.902344C3.87596 0.902344 2.95679 1.82151 2.95679 2.95518C2.95679 4.08885 3.87596 5.00802 5.00962 5.00802C5.12608 5.00802 5.24057 4.99749 5.35176 4.97907C4.38127 4.81589 3.64107 3.97239 3.64107 2.95518Z" fill="white"/>
<path d="M7.74226 2.10119L7.83437 1.81761L7.92649 2.10119H8.22454L7.98307 2.27687L8.07519 2.56045L7.83437 2.38477L7.5929 2.56045L7.68502 2.27687L7.44354 2.10119H7.74226Z" fill="white"/>
<path d="M9.52007 2.18549L9.61218 1.90191L9.7043 2.18549H10.003L9.76154 2.36117L9.85365 2.64475L9.61218 2.46907L9.37137 2.64475L9.46348 2.36117L9.22201 2.18549H9.52007Z" fill="white"/>
<path d="M6.91211 3.03089L7.00423 3.31447H7.30228L7.06147 3.49015L7.15358 3.77373L6.91211 3.59805L6.67064 3.77373L6.76275 3.49015L6.52194 3.31447H6.82L6.91211 3.03089Z" fill="white"/>
<path d="M8.69058 3.03089L8.78269 3.31447H9.08075L8.83928 3.49015L8.93139 3.77373L8.69058 3.59805L8.44911 3.77373L8.54122 3.49015L8.29975 3.31447H8.59846L8.69058 3.03089Z" fill="white"/>
<path d="M10.4684 3.03089L10.5605 3.31447H10.8592L10.6177 3.49015L10.7099 3.77373L10.4684 3.59805L10.2276 3.77373L10.3197 3.49015L10.0782 3.31447H10.3763L10.4684 3.03089Z" fill="white"/>
</g>
</svg>
