<svg width="38" height="38" viewBox="0 0 38 38" fill="none" xmlns="http://www.w3.org/2000/svg">
<path d="M32.8752 19.8074C33.4986 18.9836 33.8438 17.9742 33.8438 16.924C33.8438 15.2578 32.9123 13.6807 31.4131 12.8012C31.0271 12.5748 30.5877 12.4556 30.1402 12.4561H21.2414L21.4641 7.89532C21.516 6.79317 21.1264 5.74668 20.3693 4.94883C19.9978 4.55558 19.5496 4.24269 19.0524 4.0295C18.5552 3.81632 18.0195 3.70737 17.4785 3.70938C15.5488 3.70938 13.8418 5.00821 13.3297 6.86739L10.142 18.4084H5.34375C4.68691 18.4084 4.15625 18.9391 4.15625 19.5959V33.1037C4.15625 33.7605 4.68691 34.2912 5.34375 34.2912H27.6576C27.999 34.2912 28.333 34.2244 28.641 34.0908C30.4074 33.3375 31.5467 31.6119 31.5467 29.6971C31.5467 29.2295 31.4799 28.7693 31.3463 28.324C31.9697 27.5002 32.3148 26.4908 32.3148 25.4406C32.3148 24.973 32.248 24.5129 32.1145 24.0676C32.7379 23.2438 33.083 22.2344 33.083 21.1842C33.0756 20.7166 33.0088 20.2527 32.8752 19.8074ZM6.82812 31.6193V21.0803H9.83398V31.6193H6.82812ZM30.4445 18.5197L29.6318 19.2248L30.1477 20.1674C30.3176 20.4779 30.4057 20.8265 30.4037 21.1805C30.4037 21.7928 30.1365 22.3754 29.6764 22.7762L28.8637 23.4813L29.3795 24.4238C29.5494 24.7343 29.6375 25.083 29.6355 25.4369C29.6355 26.0492 29.3684 26.6318 28.9082 27.0326L28.0955 27.7377L28.6113 28.6803C28.7813 28.9908 28.8694 29.3394 28.8674 29.6934C28.8674 30.5246 28.3775 31.2742 27.6205 31.6156H12.209V20.9615L15.9014 7.5836C15.9966 7.24071 16.201 6.9382 16.4836 6.7219C16.7661 6.50561 17.1115 6.38732 17.4674 6.38496C17.7494 6.38496 18.0277 6.4666 18.2504 6.6336C18.6178 6.90821 18.8145 7.32383 18.7922 7.76543L18.4359 15.1279H30.1031C30.7637 15.5324 31.1719 16.2152 31.1719 16.924C31.1719 17.5363 30.9047 18.1152 30.4445 18.5197Z" fill="#6C8A9B"/>
</svg>
