<svg width="34" height="34" viewBox="0 0 34 34" fill="none" xmlns="http://www.w3.org/2000/svg">
<path d="M16.9999 32.376C17.5948 32.3623 18.1657 32.1386 18.6117 31.7445C19.0576 31.3505 19.3498 30.8114 19.4365 30.2227H14.4688C14.558 30.8274 14.8638 31.3791 15.3294 31.7752C15.795 32.1713 16.3886 32.3848 16.9999 32.376Z" fill="#A5D9A1"/>
<path d="M30.7037 26.2833C29.793 25.4714 28.9956 24.5406 28.3331 23.5161C27.6099 22.1018 27.1764 20.5573 27.0581 18.9733V14.3077C27.0543 13.741 27.0038 13.1756 26.907 12.6172C26.1637 12.4686 25.4493 12.2007 24.7915 11.8238C25.0422 12.6312 25.1696 13.4718 25.1693 14.3172V18.9827C25.285 20.9151 25.8166 22.7997 26.7276 24.5077C27.3796 25.541 28.1533 26.4922 29.032 27.3411H4.84482C5.72353 26.4922 6.49721 25.541 7.14926 24.5077C8.06028 22.7997 8.59183 20.9151 8.70759 18.9827V14.3077C8.70262 13.2147 8.9133 12.1314 9.32757 11.12C9.74183 10.1085 10.3515 9.18865 11.1218 8.41313C11.892 7.63761 12.8077 7.02165 13.8163 6.6005C14.825 6.17936 15.9068 5.96131 16.9998 5.95884C18.5995 5.96012 20.1632 6.43319 21.4954 7.31884C21.3485 6.77955 21.2661 6.22475 21.2498 5.66606V5.07106C20.2637 4.58595 19.2043 4.26686 18.1143 4.12661V2.93661C18.1143 2.60222 17.9814 2.28152 17.745 2.04507C17.5085 1.80862 17.1878 1.67578 16.8534 1.67578C16.519 1.67578 16.1983 1.80862 15.9619 2.04507C15.7254 2.28152 15.5926 2.60222 15.5926 2.93661V4.17384C13.1519 4.51814 10.9181 5.73382 9.30375 7.59644C7.68936 9.45906 6.80334 11.8429 6.80926 14.3077V18.9733C6.69097 20.5573 6.25749 22.1018 5.53426 23.5161C4.88343 24.5383 4.09889 25.4689 3.20148 26.2833C3.10074 26.3718 3.02 26.4807 2.96463 26.6029C2.90926 26.725 2.88054 26.8575 2.88037 26.9916V28.2761C2.88037 28.5265 2.97987 28.7668 3.15699 28.9439C3.33411 29.121 3.57433 29.2205 3.82482 29.2205H30.0804C30.3309 29.2205 30.5711 29.121 30.7482 28.9439C30.9253 28.7668 31.0248 28.5265 31.0248 28.2761V26.9916C31.0246 26.8575 30.9959 26.725 30.9406 26.6029C30.8852 26.4807 30.8044 26.3718 30.7037 26.2833Z" fill="#A5D9A1"/>
<path d="M28.3333 10.3898C30.9413 10.3898 33.0555 8.27555 33.0555 5.66753C33.0555 3.05952 30.9413 0.945312 28.3333 0.945312C25.7253 0.945312 23.6111 3.05952 23.6111 5.66753C23.6111 8.27555 25.7253 10.3898 28.3333 10.3898Z" fill="#A5D9A1"/>
</svg>
