<svg width="24" height="24" viewBox="0 0 24 24" fill="none" xmlns="http://www.w3.org/2000/svg">
<path d="M22.0781 18.0602V15.75C22.0781 15.142 21.7812 14.5558 21.2635 14.1416C21.2518 14.1323 21.2397 14.1235 21.2279 14.1144C21.525 13.7389 21.7031 13.265 21.7031 12.75C21.7031 11.781 21.0741 10.9567 20.2031 10.6626V2.10938C20.2031 0.946266 19.2569 0 18.0938 0H5.90625C4.74314 0 3.79688 0.946266 3.79688 2.10938V10.6626C2.92594 10.9567 2.29688 11.781 2.29688 12.75C2.29688 13.2655 2.47537 13.7399 2.77312 14.1157C2.25075 14.5191 1.92188 15.1023 1.92188 15.75V18.0602C0.868688 18.1772 0.046875 19.0724 0.046875 20.1562V21.8906C0.046875 23.0537 0.993141 24 2.15625 24H21.8438C23.0069 24 23.9531 23.0537 23.9531 21.8906V20.1562C23.9531 19.0724 23.1313 18.1772 22.0781 18.0602ZM14.5781 18.0469V15.75C14.5781 15.142 14.2812 14.5558 13.7635 14.1416C13.7518 14.1323 13.7397 14.1235 13.7279 14.1144C13.8832 13.9181 14.0057 13.695 14.0874 13.4531H17.4126C17.4945 13.6956 17.6174 13.9191 17.7731 14.1157C17.2507 14.5191 16.9219 15.1023 16.9219 15.75V18.0469H14.5781ZM7.07812 18.0469V15.75C7.07812 15.142 6.78117 14.5558 6.26348 14.1416C6.25181 14.1323 6.23967 14.1235 6.22786 14.1144C6.38316 13.9181 6.50569 13.695 6.58739 13.4531H9.91261C9.9945 13.6956 10.1174 13.9191 10.2731 14.1157C9.75075 14.5191 9.42188 15.1023 9.42188 15.75V18.0469H7.07812ZM3.32812 15.75C3.32812 15.3255 3.87577 14.9531 4.5 14.9531C4.83483 14.9531 5.15733 15.0576 5.385 15.2397C5.49211 15.3254 5.67188 15.5057 5.67188 15.75V18.0469H3.32812V15.75ZM12 13.5469C11.5606 13.5469 11.2031 13.1894 11.2031 12.75C11.2031 12.3106 11.5606 11.9531 12 11.9531C12.4394 11.9531 12.7969 12.3106 12.7969 12.75C12.7969 13.1894 12.4394 13.5469 12 13.5469ZM10.8281 15.75C10.8281 15.3255 11.3758 14.9531 12 14.9531C12.3348 14.9531 12.6573 15.0576 12.885 15.2397C12.9921 15.3254 13.1719 15.5057 13.1719 15.75V18.0469H10.8281V15.75ZM18.3281 15.75C18.3281 15.3255 18.8758 14.9531 19.5 14.9531C19.8348 14.9531 20.1573 15.0576 20.385 15.2397C20.4921 15.3254 20.6719 15.5057 20.6719 15.75V18.0469H18.3281V15.75ZM19.5 13.5469C19.0606 13.5469 18.7031 13.1894 18.7031 12.75C18.7031 12.3106 19.0606 11.9531 19.5 11.9531C19.9394 11.9531 20.2969 12.3106 20.2969 12.75C20.2969 13.1894 19.9394 13.5469 19.5 13.5469ZM5.90625 1.40625H18.0938C18.4815 1.40625 18.7969 1.72167 18.7969 2.10938V10.6626C18.1469 10.8822 17.6321 11.3969 17.4126 12.0469H14.0874C13.7932 11.1759 12.969 10.5469 12 10.5469C11.031 10.5469 10.2068 11.1759 9.91261 12.0469H6.58739C6.36783 11.3969 5.85309 10.8821 5.20312 10.6626V2.10938C5.20312 1.72167 5.51855 1.40625 5.90625 1.40625ZM3.70312 12.75C3.70312 12.3106 4.06059 11.9531 4.5 11.9531C4.93941 11.9531 5.29688 12.3106 5.29688 12.75C5.29688 13.1894 4.93941 13.5469 4.5 13.5469C4.06059 13.5469 3.70312 13.1894 3.70312 12.75ZM22.5469 21.8906C22.5469 22.2783 22.2315 22.5938 21.8438 22.5938H2.15625C1.76855 22.5938 1.45312 22.2783 1.45312 21.8906V20.1562C1.45312 19.7685 1.76855 19.4531 2.15625 19.4531H21.8438C22.2315 19.4531 22.5469 19.7685 22.5469 20.1562V21.8906Z" fill="#7E7E7E"/>
<path d="M10.6265 9.08897C10.7969 9.17892 10.9826 9.22345 11.1676 9.2234C11.3964 9.2234 11.6243 9.15539 11.821 9.021L14.4481 7.22596C14.7633 7.01062 14.952 6.65423 14.953 6.27257C14.954 5.89096 14.7673 5.53354 14.4535 5.31651L14.4536 5.31656L11.8264 3.49921C11.471 3.2534 11.0123 3.22522 10.6294 3.42594C10.2466 3.62666 10.0088 4.01985 10.0088 4.45209V8.06437C10.0087 8.49525 10.2455 8.88783 10.6265 9.08897ZM11.415 4.92459L13.3572 6.26812L11.415 7.59525V4.92459Z" fill="#7E7E7E"/>
</svg>
