<svg width="30" height="20" viewBox="0 0 30 20" fill="none" xmlns="http://www.w3.org/2000/svg">
<path d="M13.1173 1.15128L1.12728 14.8538C-0.287717 16.4713 0.862283 19.0013 3.00978 19.0013H26.9898C27.4704 19.0017 27.9409 18.8636 28.3451 18.6034C28.7492 18.3433 29.0698 17.9722 29.2684 17.5345C29.467 17.0969 29.5353 16.6113 29.4651 16.1358C29.3948 15.6604 29.189 15.2153 28.8723 14.8538L16.8823 1.15378C16.6476 0.885253 16.3582 0.670037 16.0336 0.522578C15.7089 0.375119 15.3564 0.298828 14.9998 0.298828C14.6432 0.298828 14.2907 0.375119 13.966 0.522578C13.6413 0.670037 13.3519 0.885253 13.1173 1.15378V1.15128Z" fill="#6C8A9B"/>
</svg>
