<svg width="50" height="50" viewBox="0 0 50 50" fill="none" xmlns="http://www.w3.org/2000/svg">
<path fill-rule="evenodd" clip-rule="evenodd" d="M30.2155 2.7L24.9999 0L19.7843 2.7L13.978 3.58125L11.3468 8.83125L7.16864 12.9562L8.12489 18.75L7.16864 24.5438L11.3468 28.6687L13.978 33.9188L19.7843 34.8L24.9999 37.5L30.2155 34.8L36.0218 33.9188L38.653 28.6687L42.8311 24.5438L41.8749 18.75L42.8311 12.9562L38.653 8.83125L36.0218 3.58125L30.2155 2.7ZM33.953 6.42812L29.2343 5.7125L24.9999 3.51875L20.7655 5.7125L16.0468 6.42812L13.9093 10.6937L10.5155 14.0437L11.2936 18.75L10.5124 23.4562L13.9093 26.8062L16.0468 31.0719L20.7655 31.7875L24.9999 33.9812L29.2374 31.7875L33.953 31.0719L36.0905 26.8062L39.4843 23.4562L38.7093 18.75L39.4843 14.0437L36.0905 10.6937L33.953 6.42812Z" fill="#D5B361"/>
<path d="M12.5 36.8545V49.9982L25 46.8732L37.5 49.9982V36.8545L31.1938 37.8107L25 41.017L18.8063 37.8107L12.5 36.8545Z" fill="#D5B361"/>
<path d="M24.9373 27.198C23.764 27.198 22.7153 27.022 21.7913 26.67C20.8673 26.3033 20.1487 25.7973 19.6353 25.152C19.122 24.5067 18.8653 23.7733 18.8653 22.952C18.8653 22.3213 19.0707 21.8593 19.4813 21.566C19.892 21.2727 20.552 21.126 21.4613 21.126C21.4173 21.434 21.3953 21.7493 21.3953 22.072C21.3953 22.9813 21.696 23.678 22.2973 24.162C22.8987 24.6313 23.7787 24.866 24.9373 24.866C27.284 24.866 28.4573 24.1107 28.4573 22.6C28.4573 21.8373 28.1933 21.258 27.6653 20.862C27.1373 20.466 26.36 20.268 25.3333 20.268H24.5853C24.2627 20.268 23.9913 20.1653 23.7713 19.96C23.566 19.74 23.4633 19.4687 23.4633 19.146C23.4633 18.794 23.566 18.5153 23.7713 18.31C23.9767 18.1047 24.248 18.002 24.5853 18.002H25.3553C26.206 18.002 26.8587 17.8113 27.3133 17.43C27.7827 17.0487 28.0173 16.5133 28.0173 15.824C28.0173 15.1493 27.7607 14.6287 27.2473 14.262C26.734 13.8953 26.0007 13.712 25.0473 13.712C24.006 13.712 23.1993 13.8953 22.6273 14.262C22.07 14.6287 21.7913 15.1567 21.7913 15.846C21.7913 16.1247 21.8207 16.418 21.8793 16.726C21.102 16.7553 20.4713 16.6233 19.9873 16.33C19.5033 16.022 19.2613 15.6113 19.2613 15.098C19.2613 14.3793 19.5033 13.7413 19.9873 13.184C20.486 12.6267 21.1753 12.194 22.0553 11.886C22.9353 11.5633 23.9327 11.402 25.0473 11.402C26.1767 11.402 27.1667 11.5853 28.0173 11.952C28.8827 12.3187 29.5427 12.8393 29.9973 13.514C30.4667 14.174 30.7013 14.944 30.7013 15.824C30.7013 17.2467 29.9607 18.3467 28.4793 19.124C29.4327 19.5347 30.1147 20.0113 30.5253 20.554C30.936 21.082 31.1413 21.764 31.1413 22.6C31.1413 23.524 30.8847 24.338 30.3713 25.042C29.858 25.7313 29.132 26.2667 28.1933 26.648C27.2693 27.0147 26.184 27.198 24.9373 27.198Z" fill="#D4B361"/>
</svg>
