<svg width="50" height="50" viewBox="0 0 50 50" fill="none" xmlns="http://www.w3.org/2000/svg">
<path fill-rule="evenodd" clip-rule="evenodd" d="M25 46.875C30.8016 46.875 36.3656 44.5703 40.468 40.468C44.5703 36.3656 46.875 30.8016 46.875 25C46.875 19.1984 44.5703 13.6344 40.468 9.53204C36.3656 5.42968 30.8016 3.125 25 3.125C19.1984 3.125 13.6344 5.42968 9.53204 9.53204C5.42968 13.6344 3.125 19.1984 3.125 25C3.125 30.8016 5.42968 36.3656 9.53204 40.468C13.6344 44.5703 19.1984 46.875 25 46.875ZM25 50C31.6304 50 37.9893 47.3661 42.6777 42.6777C47.3661 37.9893 50 31.6304 50 25C50 18.3696 47.3661 12.0107 42.6777 7.32233C37.9893 2.63392 31.6304 0 25 0C18.3696 0 12.0107 2.63392 7.32233 7.32233C2.63392 12.0107 0 18.3696 0 25C0 31.6304 2.63392 37.9893 7.32233 42.6777C12.0107 47.3661 18.3696 50 25 50Z" fill="#A5D9A1"/>
<path fill-rule="evenodd" clip-rule="evenodd" d="M34.2802 15.5298C34.7176 15.0963 35.308 14.8523 35.9238 14.8506C36.5396 14.8489 37.1313 15.0896 37.571 15.5207C38.0107 15.9518 38.2631 16.5387 38.2736 17.1544C38.2841 17.7701 38.0519 18.3652 37.6271 18.8111L25.1521 34.4048C24.9377 34.6357 24.6789 34.8211 24.3913 34.9497C24.1036 35.0783 23.7929 35.1477 23.4779 35.1535C23.1628 35.1593 22.8498 35.1016 22.5576 34.9837C22.2654 34.8658 21.9999 34.6901 21.7771 34.4673L13.5115 26.1986C13.2812 25.984 13.0965 25.7252 12.9684 25.4377C12.8403 25.1502 12.7714 24.8399 12.7659 24.5252C12.7603 24.2105 12.8182 23.8979 12.9361 23.6061C13.054 23.3142 13.2294 23.0491 13.452 22.8266C13.6745 22.604 13.9396 22.4286 14.2315 22.3107C14.5233 22.1928 14.8359 22.1349 15.1506 22.1405C15.4653 22.146 15.7757 22.2149 16.0631 22.343C16.3506 22.4711 16.6094 22.6558 16.824 22.8861L23.3677 29.4267L34.2208 15.5986C34.2402 15.5743 34.2611 15.5514 34.2833 15.5298H34.2802Z" fill="#A5D9A1"/>
</svg>
