<svg width="50" height="50" viewBox="0 0 50 50" fill="none" xmlns="http://www.w3.org/2000/svg">
<path fill-rule="evenodd" clip-rule="evenodd" d="M30.2155 2.7L24.9999 0L19.7843 2.7L13.978 3.58125L11.3468 8.83125L7.16864 12.9562L8.12489 18.75L7.16864 24.5438L11.3468 28.6687L13.978 33.9188L19.7843 34.8L24.9999 37.5L30.2155 34.8L36.0218 33.9188L38.653 28.6687L42.8311 24.5438L41.8749 18.75L42.8311 12.9562L38.653 8.83125L36.0218 3.58125L30.2155 2.7ZM33.953 6.42812L29.2343 5.7125L24.9999 3.51875L20.7655 5.7125L16.0468 6.42812L13.9093 10.6937L10.5155 14.0437L11.2936 18.75L10.5124 23.4562L13.9093 26.8062L16.0468 31.0719L20.7655 31.7875L24.9999 33.9812L29.2374 31.7875L33.953 31.0719L36.0905 26.8062L39.4843 23.4562L38.7093 18.75L39.4843 14.0437L36.0905 10.6937L33.953 6.42812Z" fill="#FFBC01"/>
<path d="M12.5 36.8545V49.9982L25 46.8732L37.5 49.9982V36.8545L31.1938 37.8107L25 41.017L18.8063 37.8107L12.5 36.8545Z" fill="#FFBC01"/>
<path d="M24.8078 13.888H23.6198C23.0478 13.888 22.5932 13.6827 22.2558 13.272C21.9185 12.8467 21.7498 12.2893 21.7498 11.6H26.2378C26.5752 11.6 26.8612 11.71 27.0958 11.93C27.3452 12.15 27.4698 12.4213 27.4698 12.744V25.174C27.4698 25.8193 27.2425 26.318 26.7878 26.67C26.3332 27.022 25.6732 27.198 24.8078 27.198V13.888Z" fill="#FFBC01"/>
</svg>
