<svg width="35" height="35" viewBox="0 0 35 35" fill="none" xmlns="http://www.w3.org/2000/svg">
<g clip-path="url(#clip0)">
<path d="M28.2188 14.6423C27.7289 12.1598 26.3923 9.9244 24.4374 8.31788C22.4824 6.71137 20.0304 5.83341 17.5 5.83398C13.2854 5.83398 9.625 8.22565 7.80208 11.7257C5.65867 11.9573 3.67647 12.9728 2.23634 14.5772C0.796208 16.1815 -0.000250398 18.2614 5.90519e-08 20.4173C5.90519e-08 25.2444 3.92292 29.1673 8.75 29.1673H27.7083C31.7333 29.1673 35 25.9007 35 21.8757C35 18.0257 32.0104 14.9048 28.2188 14.6423ZM24.7917 18.959L17.5 26.2507L10.2083 18.959H14.5833V13.1257H20.4167V18.959H24.7917Z" fill="white"/>
</g>
<defs>
<clipPath id="clip0">
<rect width="35" height="35" fill="white"/>
</clipPath>
</defs>
</svg>
