<svg width="30" height="30" viewBox="0 0 30 30" fill="none" xmlns="http://www.w3.org/2000/svg">
<path d="M27.5 0H2.5C1.11996 0.00162557 0.00162557 1.11996 0 2.5V27.5C0.00162557 28.88 1.11996 29.9984 2.5 30H27.5C28.88 29.9984 29.9984 28.88 30 27.5V2.5C29.9984 1.11996 28.88 0.00162557 27.5 0ZM2.5 1H27.5C28.3281 1.00091 28.9991 1.67195 29 2.5V6H1V2.5C1.00091 1.67195 1.67195 1.00091 2.5 1ZM27.5 29H2.5C1.67195 28.9991 1.00091 28.3281 1 27.5V7H29V27.5C28.9991 28.3281 28.3281 28.9991 27.5 29Z" fill="black"/>
<path d="M3.5 5C4.32843 5 5 4.32843 5 3.5C5 2.67157 4.32843 2 3.5 2C2.67157 2 2 2.67157 2 3.5C2.00091 4.32805 2.67195 4.99909 3.5 5ZM3.5 3C3.77614 3 4 3.22386 4 3.5C4 3.77614 3.77614 4 3.5 4C3.22386 4 3 3.77614 3 3.5C3.00025 3.22396 3.22396 3.00025 3.5 3Z" fill="black"/>
<path d="M7.5 5C8.32843 5 9 4.32843 9 3.5C9 2.67157 8.32843 2 7.5 2C6.67157 2 6 2.67157 6 3.5C6.00091 4.32805 6.67195 4.99909 7.5 5ZM7.5 3C7.77614 3 8 3.22386 8 3.5C8 3.77614 7.77614 4 7.5 4C7.22386 4 7 3.77614 7 3.5C7.00025 3.22396 7.22396 3.00025 7.5 3Z" fill="black"/>
<path d="M11.5 5C12.3284 5 13 4.32843 13 3.5C13 2.67157 12.3284 2 11.5 2C10.6716 2 10 2.67157 10 3.5C10.0009 4.32805 10.6719 4.99909 11.5 5ZM11.5 3C11.7761 3 12 3.22386 12 3.5C12 3.77614 11.7761 4 11.5 4C11.2239 4 11 3.77614 11 3.5C11.0002 3.22396 11.224 3.00025 11.5 3Z" fill="black"/>
<path d="M9 8.5C6.51472 8.5 4.5 10.5147 4.5 13C4.5 15.4853 6.51472 17.5 9 17.5C11.4853 17.5 13.5 15.4853 13.5 13C13.4972 10.5159 11.4841 8.50276 9 8.5ZM9 16.5C7.067 16.5 5.5 14.933 5.5 13C5.5 11.067 7.067 9.5 9 9.5C10.933 9.5 12.5 11.067 12.5 13C12.4978 14.9321 10.9321 16.4978 9 16.5Z" fill="black"/>
<path d="M9 18.5C6.51472 18.5 4.5 20.5147 4.5 23C4.5 25.4853 6.51472 27.5 9 27.5C11.4853 27.5 13.5 25.4853 13.5 23C13.4972 20.5159 11.4841 18.5028 9 18.5ZM9 26.5C7.067 26.5 5.5 24.933 5.5 23C5.5 21.067 7.067 19.5 9 19.5C10.933 19.5 12.5 21.067 12.5 23C12.4978 24.9321 10.9321 26.4978 9 26.5Z" fill="black"/>
<path d="M7 13C7.27614 13 7.5 12.7761 7.5 12.5C7.5 12.2239 7.27614 12 7 12C6.72386 12 6.5 12.2239 6.5 12.5C6.5 12.7761 6.72386 13 7 13Z" fill="black"/>
<path d="M11 13C11.2761 13 11.5 12.7761 11.5 12.5C11.5 12.2239 11.2761 12 11 12C10.7239 12 10.5 12.2239 10.5 12.5C10.5 12.7761 10.7239 13 11 13Z" fill="black"/>
<path d="M10.1168 13.4278C9.86249 13.3205 9.56934 13.439 9.461 13.6928C9.43567 13.7526 9.39903 13.8069 9.3531 13.8528C9.30772 13.8983 9.25398 13.9345 9.19485 13.9595C9.07024 14.0118 8.92986 14.0118 8.80525 13.9595C8.68528 13.9085 8.58985 13.8128 8.5391 13.6927C8.43124 13.4384 8.13765 13.3197 7.88335 13.4275C7.62905 13.5354 7.51034 13.829 7.6182 14.0833C7.69361 14.2609 7.80253 14.4224 7.939 14.5589C8.22007 14.8407 8.60169 14.9991 8.9997 14.9992C9.39771 14.9993 9.7794 14.841 10.0606 14.5594C10.1973 14.4228 10.3064 14.2612 10.3819 14.0833C10.4897 13.8291 10.371 13.5356 10.1168 13.4278Z" fill="black"/>
<path d="M7 23C7.27614 23 7.5 22.7761 7.5 22.5C7.5 22.2239 7.27614 22 7 22C6.72386 22 6.5 22.2239 6.5 22.5C6.5 22.7761 6.72386 23 7 23Z" fill="black"/>
<path d="M11 23C11.2761 23 11.5 22.7761 11.5 22.5C11.5 22.2239 11.2761 22 11 22C10.7239 22 10.5 22.2239 10.5 22.5C10.5 22.7761 10.7239 23 11 23Z" fill="black"/>
<path d="M10.0611 23.9402C9.92446 23.8027 9.76223 23.6933 9.58355 23.6182C9.21024 23.4619 8.78986 23.4619 8.41655 23.6182C8.23809 23.6932 8.07603 23.8024 7.9395 23.9397C7.80281 24.0763 7.69372 24.2379 7.6182 24.4158C7.51034 24.6701 7.62905 24.9637 7.88335 25.0716C8.13765 25.1794 8.43124 25.0607 8.5391 24.8064C8.56444 24.7466 8.60108 24.6923 8.647 24.6464C8.69239 24.601 8.74612 24.5648 8.80525 24.5397C8.92986 24.4875 9.07024 24.4875 9.19485 24.5397C9.31483 24.5908 9.41026 24.6865 9.461 24.8066C9.56887 25.0609 9.86246 25.1796 10.1168 25.0717C10.3711 24.9638 10.4898 24.6703 10.3819 24.416C10.3065 24.2382 10.1976 24.0767 10.0611 23.9402Z" fill="black"/>
<path d="M24 13C23.7239 13 23.5 13.2239 23.5 13.5V15.5C23.4998 15.776 23.276 15.9998 23 16H18C17.724 15.9998 17.5002 15.776 17.5 15.5V10.5C17.5002 10.224 17.724 10.0002 18 10H23C23.2761 10 23.5 9.77614 23.5 9.5C23.5 9.22386 23.2761 9 23 9H18C17.1719 9.00091 16.5009 9.67195 16.5 10.5V15.5C16.5009 16.328 17.1719 16.9991 18 17H23C23.828 16.9991 24.4991 16.328 24.5 15.5V13.5C24.5 13.2239 24.2761 13 24 13Z" fill="black"/>
<path d="M23 19H18C17.1719 19.0009 16.5009 19.672 16.5 20.5V25.5C16.5009 26.3281 17.1719 26.9991 18 27H23C23.828 26.9991 24.4991 26.3281 24.5 25.5V20.5C24.4991 19.672 23.828 19.0009 23 19ZM23.5 25.5C23.4998 25.776 23.276 25.9998 23 26H18C17.724 25.9998 17.5002 25.776 17.5 25.5V20.5C17.5002 20.224 17.724 20.0002 18 20H23C23.276 20.0002 23.4998 20.224 23.5 20.5V25.5Z" fill="black"/>
<path d="M25.1465 9.14719L20.5 13.7936L19.3535 12.6472C19.1573 12.4577 18.8454 12.4604 18.6525 12.6533C18.4597 12.8461 18.457 13.158 18.6465 13.3542L20.1465 14.8542C20.2402 14.948 20.3674 15.0007 20.5 15.0007C20.6326 15.0007 20.7597 14.948 20.8535 14.8542L25.8535 9.85419C26.0429 9.658 26.0402 9.34615 25.8474 9.15328C25.6545 8.96042 25.3427 8.95771 25.1465 9.14719Z" fill="black"/>
</svg>
