<svg width="24" height="28" viewBox="0 0 24 28" fill="none" xmlns="http://www.w3.org/2000/svg">
<path d="M4.5 0.875H13.875V2.75H4.5C4.00272 2.75 3.52581 2.94754 3.17417 3.29917C2.82254 3.65081 2.625 4.12772 2.625 4.625V23.375C2.625 23.8723 2.82254 24.3492 3.17417 24.7008C3.52581 25.0525 4.00272 25.25 4.5 25.25H19.5C19.9973 25.25 20.4742 25.0525 20.8258 24.7008C21.1775 24.3492 21.375 23.8723 21.375 23.375V10.25H23.25V23.375C23.25 24.3696 22.8549 25.3234 22.1516 26.0266C21.4484 26.7299 20.4946 27.125 19.5 27.125H4.5C3.50544 27.125 2.55161 26.7299 1.84835 26.0266C1.14509 25.3234 0.75 24.3696 0.75 23.375V4.625C0.75 3.63044 1.14509 2.67661 1.84835 1.97335C2.55161 1.27009 3.50544 0.875 4.5 0.875Z" fill="black"/>
<path d="M13.875 7.4375V0.875L23.25 10.25H16.6875C15.9416 10.25 15.2262 9.95368 14.6988 9.42624C14.1713 8.89879 13.875 8.18342 13.875 7.4375Z" fill="black"/>
</svg>
