<svg width="28" height="32" viewBox="0 0 28 32" fill="none" xmlns="http://www.w3.org/2000/svg">
<path d="M25.8358 14.3358C25.4607 13.9607 24.952 13.75 24.4216 13.75H23V9.25C23 6.86305 22.0518 4.57387 20.364 2.88604C18.6761 1.19821 16.3869 0.25 14 0.25C11.6131 0.25 9.32387 1.19821 7.63604 2.88604C5.94821 4.57387 5 6.86305 5 9.25V13.75H3.57843C3.04799 13.75 2.53929 13.9607 2.16421 14.3358L1.08579 15.4142C0.710713 15.7893 0.5 16.298 0.5 16.8284V28.6716C0.5 29.202 0.710714 29.7107 1.08579 30.0858L2.16421 31.1642C2.53929 31.5393 3.04799 31.75 3.57843 31.75H24.4216C24.952 31.75 25.4607 31.5393 25.8358 31.1642L26.9142 30.0858C27.2893 29.7107 27.5 29.202 27.5 28.6716V16.8284C27.5 16.298 27.2893 15.7893 26.9142 15.4142L25.8358 14.3358ZM7.25 9.25C7.25 7.45979 7.96116 5.7429 9.22703 4.47703C10.4929 3.21116 12.2098 2.5 14 2.5C15.7902 2.5 17.5071 3.21116 18.773 4.47703C20.0388 5.7429 20.75 7.45979 20.75 9.25V13.75H7.25V9.25ZM25.25 28.5C25.25 29.0523 24.8023 29.5 24.25 29.5H3.75C3.19772 29.5 2.75 29.0523 2.75 28.5V17C2.75 16.4477 3.19772 16 3.75 16H24.25C24.8023 16 25.25 16.4477 25.25 17V28.5Z" fill="white"/>
</svg>
