<svg width="41" height="31" viewBox="0 0 41 31" fill="none" xmlns="http://www.w3.org/2000/svg">
<path d="M33.1495 12.5821C32.7326 6.17675 28.2441 0 20.0119 0C12.4825 0 6.67617 5.55384 6.36867 12.9657C2.24914 14.2377 0 18.6126 0 21.7969C0 26.6997 4.10586 31 8.78571 31H15.131C15.2604 31 15.3846 30.949 15.4761 30.8581C15.5676 30.7673 15.619 30.6441 15.619 30.5156C15.619 30.3872 15.5676 30.264 15.4761 30.1731C15.3846 30.0823 15.2604 30.0312 15.131 30.0312H8.78571C4.62519 30.0312 0.97619 26.1834 0.97619 21.7969C0.97619 18.8412 3.58652 13.5625 8.78571 13.5625H10.25C10.3795 13.5625 10.5036 13.5115 10.5951 13.4206C10.6867 13.3298 10.7381 13.2066 10.7381 13.0781C10.7381 12.9497 10.6867 12.8265 10.5951 12.7356C10.5036 12.6448 10.3795 12.5938 10.25 12.5938H8.78571C8.28883 12.5938 7.81929 12.649 7.36145 12.7284C7.74412 6.92559 12.1887 0.96875 20.0119 0.96875C28.3954 0.96875 32.2143 7.49716 32.2143 13.5625V15.0156C32.2143 15.1441 32.2657 15.2673 32.3572 15.3581C32.4488 15.449 32.5729 15.5 32.7024 15.5C32.8318 15.5 32.956 15.449 33.0475 15.3581C33.139 15.2673 33.1905 15.1441 33.1905 15.0156V13.5625V13.5538C36.1376 13.8744 40.0238 17.0132 40.0238 21.7969C40.0238 25.5033 36.4207 30.0312 32.2143 30.0312H24.8929C21.732 30.0312 20.5 28.8087 20.5 25.6719V12.3835L24.4809 16.3263C24.5259 16.3727 24.5797 16.4096 24.6392 16.4351C24.6987 16.4606 24.7627 16.474 24.8275 16.4747C24.8923 16.4753 24.9566 16.4631 25.0166 16.4389C25.0767 16.4146 25.1312 16.3787 25.1771 16.3333C25.223 16.2879 25.2593 16.2339 25.2839 16.1744C25.3086 16.1149 25.321 16.0511 25.3205 15.9868C25.3201 15.9225 25.3067 15.8589 25.2812 15.7998C25.2557 15.7407 25.2186 15.6872 25.172 15.6424L20.8173 11.3295C20.2374 10.756 19.7874 10.756 19.2085 11.3295L14.8537 15.6424C14.7648 15.7338 14.7156 15.8561 14.7167 15.9831C14.7178 16.1101 14.7692 16.2316 14.8597 16.3214C14.9502 16.4112 15.0726 16.4622 15.2006 16.4633C15.3285 16.4644 15.4518 16.4155 15.5439 16.3273L19.5238 12.3835V25.6719C19.5238 29.357 21.1794 31 24.8929 31H32.2143C36.9459 31 41 25.9393 41 21.7969C41 16.7913 36.8775 12.8766 33.1495 12.5821Z" fill="white"/>
</svg>
