<svg width="30" height="30" viewBox="0 0 30 30" fill="none" xmlns="http://www.w3.org/2000/svg">
<path d="M27.5 0H2.5C1.11996 0.00162557 0.00162557 1.11996 0 2.5V27.5C0.00162557 28.88 1.11996 29.9984 2.5 30H27.5C28.88 29.9984 29.9984 28.88 30 27.5V2.5C29.9984 1.11996 28.88 0.00162557 27.5 0ZM2.5 1H27.5C28.3281 1.00091 28.9991 1.67195 29 2.5V6H1V2.5C1.00091 1.67195 1.67195 1.00091 2.5 1ZM27.5 29H2.5C1.67195 28.9991 1.00091 28.3281 1 27.5V7H29V27.5C28.9991 28.3281 28.3281 28.9991 27.5 29Z" fill="black"/>
<path d="M3.5 5C4.32843 5 5 4.32843 5 3.5C5 2.67157 4.32843 2 3.5 2C2.67157 2 2 2.67157 2 3.5C2.00091 4.32805 2.67195 4.99909 3.5 5ZM3.5 3C3.77614 3 4 3.22386 4 3.5C4 3.77614 3.77614 4 3.5 4C3.22386 4 3 3.77614 3 3.5C3.00025 3.22396 3.22396 3.00025 3.5 3Z" fill="black"/>
<path d="M7.5 5C8.32843 5 9 4.32843 9 3.5C9 2.67157 8.32843 2 7.5 2C6.67157 2 6 2.67157 6 3.5C6.00091 4.32805 6.67195 4.99909 7.5 5ZM7.5 3C7.77614 3 8 3.22386 8 3.5C8 3.77614 7.77614 4 7.5 4C7.22386 4 7 3.77614 7 3.5C7.00025 3.22396 7.22396 3.00025 7.5 3Z" fill="black"/>
<path d="M11.5 5C12.3284 5 13 4.32843 13 3.5C13 2.67157 12.3284 2 11.5 2C10.6716 2 10 2.67157 10 3.5C10.0009 4.32805 10.6719 4.99909 11.5 5ZM11.5 3C11.7761 3 12 3.22386 12 3.5C12 3.77614 11.7761 4 11.5 4C11.2239 4 11 3.77614 11 3.5C11.0002 3.22396 11.224 3.00025 11.5 3Z" fill="black"/>
<path d="M18.5 13C18.2239 13 18 13.2239 18 13.5V15.5C17.9998 15.776 17.776 15.9998 17.5 16H12.5C12.224 15.9998 12.0002 15.776 12 15.5V10.5C12.0002 10.224 12.224 10.0002 12.5 10H17.5C17.7761 10 18 9.77614 18 9.5C18 9.22386 17.7761 9 17.5 9H12.5C11.6719 9.00091 11.0009 9.67195 11 10.5V15.5C11.0009 16.328 11.6719 16.9991 12.5 17H17.5C18.328 16.9991 18.9991 16.328 19 15.5V13.5C19 13.2239 18.7761 13 18.5 13Z" fill="black"/>
<path d="M17.5 19H12.5C11.6719 19.0009 11.0009 19.672 11 20.5V25.5C11.0009 26.3281 11.6719 26.9991 12.5 27H17.5C18.328 26.9991 18.9991 26.3281 19 25.5V20.5C18.9991 19.672 18.328 19.0009 17.5 19ZM18 25.5C17.9998 25.776 17.776 25.9998 17.5 26H12.5C12.224 25.9998 12.0002 25.776 12 25.5V20.5C12.0002 20.224 12.224 20.0002 12.5 20H17.5C17.776 20.0002 17.9998 20.224 18 20.5V25.5Z" fill="black"/>
<path d="M19.6462 9.14817L14.9997 13.7946L13.8532 12.6482C13.657 12.4587 13.3452 12.4614 13.1523 12.6543C12.9594 12.8471 12.9567 13.159 13.1462 13.3552L14.6462 14.8552C14.7399 14.949 14.8671 15.0017 14.9997 15.0017C15.1323 15.0017 15.2595 14.949 15.3532 14.8552L20.3532 9.85517C20.5427 9.65898 20.54 9.34713 20.3471 9.15426C20.1543 8.96139 19.8424 8.95868 19.6462 9.14817Z" fill="black"/>
</svg>
