<svg width="152" height="152" viewBox="0 0 152 152" fill="none" xmlns="http://www.w3.org/2000/svg">
<path d="M76 90.0274C77.4558 90.0274 78.8519 89.4491 79.8813 88.4197C80.9106 87.3904 81.4889 85.9942 81.4889 84.5385V59.1207C81.4889 57.665 80.9106 56.2689 79.8813 55.2395C78.8519 54.2101 77.4558 53.6318 76 53.6318C74.5443 53.6318 73.1482 54.2101 72.1188 55.2395C71.0894 56.2689 70.5111 57.665 70.5111 59.1207V84.4541C70.4999 85.1819 70.6337 85.9048 70.9045 86.5805C71.1753 87.2562 71.5778 87.8713 72.0886 88.39C72.5995 88.9087 73.2083 89.3205 73.8798 89.6016C74.5513 89.8828 75.2721 90.0275 76 90.0274Z" fill="#FFA097"/>
<path d="M75.7889 108.818C79.2867 108.818 82.1223 105.983 82.1223 102.485C82.1223 98.9869 79.2867 96.1514 75.7889 96.1514C72.2911 96.1514 69.4556 98.9869 69.4556 102.485C69.4556 105.983 72.2911 108.818 75.7889 108.818Z" fill="#FFA097"/>
<path d="M128.06 107.826L86.9356 32.0792C85.8468 30.0787 84.2388 28.4088 82.2809 27.2453C80.323 26.0818 78.0876 25.4678 75.81 25.4678C73.5325 25.4678 71.2971 26.0818 69.3392 27.2453C67.3812 28.4088 65.7733 30.0787 64.6845 32.0792L23.5178 107.826C22.4403 109.76 21.8886 111.943 21.9175 114.156C21.9465 116.37 22.5552 118.537 23.6829 120.443C24.8106 122.348 26.418 123.924 28.3448 125.015C30.2716 126.105 32.4506 126.671 34.6645 126.657H116.913C119.109 126.659 121.268 126.09 123.177 125.006C125.087 123.922 126.682 122.361 127.806 120.475C128.93 118.588 129.544 116.442 129.589 114.247C129.634 112.052 129.107 109.883 128.06 107.952V107.826ZM120.544 116.017C120.171 116.647 119.639 117.169 119.003 117.532C118.366 117.895 117.646 118.086 116.913 118.086H34.6645C33.9306 118.088 33.2088 117.898 32.5704 117.536C31.9319 117.174 31.3989 116.652 31.0238 116.021C30.6487 115.391 30.4445 114.673 30.4314 113.939C30.4183 113.205 30.5966 112.481 30.9489 111.837L72.0734 36.0903C72.4351 35.42 72.9715 34.8601 73.6256 34.4698C74.2797 34.0795 75.0272 33.8735 75.7889 33.8735C76.5506 33.8735 77.2981 34.0795 77.9522 34.4698C78.6063 34.8601 79.1427 35.42 79.5045 36.0903L120.629 111.837C120.979 112.481 121.155 113.205 121.14 113.938C121.126 114.671 120.92 115.387 120.544 116.017Z" fill="#FFA097"/>
</svg>
