<svg width="40" height="40" viewBox="0 0 40 40" fill="none" xmlns="http://www.w3.org/2000/svg">
<path d="M33.3332 6.66638H9.99984C8.1615 6.66638 6.6665 8.16138 6.6665 9.99972V18.333H9.99984V13.333L20.6665 21.333C20.9551 21.5492 21.306 21.666 21.6665 21.666C22.0271 21.666 22.3779 21.5492 22.6665 21.333L33.3332 13.333V28.333H19.9998V31.6664H33.3332C35.1715 31.6664 36.6665 30.1714 36.6665 28.333V9.99972C36.6665 8.16138 35.1715 6.66638 33.3332 6.66638ZM21.6665 17.9164L11.1098 9.99972H32.2232L21.6665 17.9164Z" fill="#6C8A9B"/>
<path d="M3.3335 20H15.0002V23.3333H3.3335V20ZM6.66683 25H16.6668V28.3333H6.66683V25ZM11.6668 30H18.3335V33.3333H11.6668V30Z" fill="#6C8A9B"/>
</svg>
