<svg width="22" height="16" viewBox="0 0 22 16" fill="none" xmlns="http://www.w3.org/2000/svg">
<g opacity="0.6">
<path d="M0.112305 2.45629V4.8032H21.2345V2.45629C21.2345 1.16021 20.1837 0.109375 18.8876 0.109375H2.45922C1.16314 0.109375 0.112305 1.16021 0.112305 2.45629Z" fill="#0099B5"/>
<path d="M21.2345 13.0188V10.6719H0.112305V13.0188C0.112305 14.3149 1.16314 15.3657 2.45922 15.3657H18.8876C20.1837 15.3657 21.2345 14.3149 21.2345 13.0188Z" fill="#1EB53A"/>
<path d="M0.112305 4.80469H21.2345V5.68478H0.112305V4.80469ZM0.112305 9.79188H21.2345V10.672H0.112305V9.79188Z" fill="#CE1126"/>
<path d="M0.112305 7.73714V9.79069H21.2345V5.68359H0.112305V7.73714Z" fill="white"/>
<path d="M2.57651 2.54934C2.57651 1.64226 3.23658 0.890075 4.102 0.744566C4.00284 0.728138 3.90075 0.71875 3.7969 0.71875C2.78597 0.71875 1.96631 1.53841 1.96631 2.54934C1.96631 3.56028 2.78597 4.37993 3.7969 4.37993C3.90075 4.37993 4.00284 4.37055 4.102 4.35412C3.23658 4.20861 2.57651 3.45642 2.57651 2.54934ZM5.32416 3.90058L5.24201 3.6477L5.15987 3.90058H4.8935L5.10883 4.05723L5.02668 4.31011L5.24201 4.15346L5.45676 4.31011L5.37461 4.05723L5.58994 3.90058H5.32416ZM6.9095 3.90058L6.82735 3.6477L6.74521 3.90058H6.47942L6.69475 4.05723L6.61261 4.31011L6.82735 4.15346L7.04268 4.31011L6.96054 4.05723L7.17587 3.90058H6.9095ZM6.82735 2.18322L6.74521 2.4361H6.47942L6.69475 2.59276L6.61261 2.84564L6.82735 2.68898L7.04268 2.84564L6.96054 2.59276L7.17587 2.4361H6.9095L6.82735 2.18322ZM8.49542 3.90058L8.41328 3.6477L8.33114 3.90058H8.06535L8.28009 4.05723L8.19795 4.31011L8.41328 4.15346L8.62861 4.31011L8.54647 4.05723L8.76121 3.90058H8.49542ZM8.41328 2.18322L8.33114 2.4361H8.06535L8.28009 2.59276L8.19795 2.84564L8.41328 2.68898L8.62861 2.84564L8.54647 2.59276L8.76121 2.4361H8.49542L8.41328 2.18322ZM8.41328 0.71875L8.33114 0.97163H8.06535L8.28009 1.12829L8.19795 1.38117L8.41328 1.22451L8.62861 1.38117L8.54647 1.12829L8.76121 0.97163H8.49542L8.41328 0.71875ZM10.0813 3.90058L9.99921 3.6477L9.91707 3.90058H9.65069L9.86602 4.05723L9.78388 4.31011L9.99921 4.15346L10.2139 4.31011L10.1318 4.05723L10.3471 3.90058H10.0813ZM9.99921 2.18322L9.91707 2.4361H9.65069L9.86602 2.59276L9.78388 2.84564L9.99921 2.68898L10.2139 2.84564L10.1318 2.59276L10.3471 2.4361H10.0813L9.99921 2.18322ZM9.99921 0.71875L9.91707 0.97163H9.65069L9.86602 1.12829L9.78388 1.38117L9.99921 1.22451L10.2139 1.38117L10.1318 1.12829L10.3471 0.97163H10.0813L9.99921 0.71875ZM11.6667 3.90058L11.5845 3.6477L11.5024 3.90058H11.2366L11.4519 4.05723L11.3698 4.31011L11.5845 4.15346L11.7999 4.31011L11.7177 4.05723L11.9331 3.90058H11.6667ZM11.5845 2.18322L11.5024 2.4361H11.2366L11.4519 2.59276L11.3698 2.84564L11.5845 2.68898L11.7999 2.84564L11.7177 2.59276L11.9331 2.4361H11.6667L11.5845 2.18322ZM11.5845 0.71875L11.5024 0.97163H11.2366L11.4519 1.12829L11.3698 1.38117L11.5845 1.22451L11.7999 1.38117L11.7177 1.12829L11.9331 0.97163H11.6667L11.5845 0.71875Z" fill="white"/>
</g>
</svg>
