<svg width="24" height="24" viewBox="0 0 24 24" fill="none" xmlns="http://www.w3.org/2000/svg">
<mask id="path-1-inside-1" fill="white">
<path fill-rule="evenodd" clip-rule="evenodd" d="M20.0733 13.8167L22.32 19.7533C22.3511 19.8352 22.3658 19.9224 22.3631 20.0099C22.3605 20.0974 22.3407 20.1836 22.3048 20.2634C22.2689 20.3433 22.2176 20.4153 22.1539 20.4753C22.0901 20.5354 22.0152 20.5823 21.9333 20.6133L18.1933 22.04C18.1115 22.0711 18.0243 22.0858 17.9368 22.0831C17.8493 22.0805 17.7631 22.0607 17.6832 22.0248C17.6034 21.9889 17.5314 21.9376 17.4713 21.8739C17.4113 21.8101 17.3644 21.7352 17.3333 21.6533L14 12.8467V21.3333C14 21.5101 13.9298 21.6797 13.8047 21.8047C13.6797 21.9298 13.5101 22 13.3333 22H2.66667C2.48986 22 2.32029 21.9298 2.19526 21.8047C2.07024 21.6797 2 21.5101 2 21.3333V3.33333C2 2.97971 2.14048 2.64057 2.39052 2.39052C2.64057 2.14048 2.97971 2 3.33333 2H8.05333C8.39281 2 8.71838 2.13486 8.95843 2.3749C9.19848 2.61495 9.33333 2.94052 9.33333 3.28V4.66667H12.72C13.0595 4.66667 13.3851 4.80152 13.6251 5.04157C13.8651 5.28162 14 5.60719 14 5.94667V7.9L16.1067 7.10667C16.2704 7.04449 16.4447 7.01516 16.6198 7.02038C16.7948 7.02559 16.9671 7.06523 17.1269 7.13705C17.2866 7.20886 17.4306 7.31143 17.5507 7.43891C17.6707 7.56639 17.7645 7.71627 17.8267 7.88L20.0733 13.8167ZM7 13.5V5.94667V4H4V12V20.0099H7V13.5ZM9.33333 20.0099H12V6.5H9.33333V20.0099ZM16.5633 8.92074L14.1598 9.875L18.4615 20.71L20.8651 19.7558L16.5633 8.92074Z"/>
</mask>
<path fill-rule="evenodd" clip-rule="evenodd" d="M20.0733 13.8167L22.32 19.7533C22.3511 19.8352 22.3658 19.9224 22.3631 20.0099C22.3605 20.0974 22.3407 20.1836 22.3048 20.2634C22.2689 20.3433 22.2176 20.4153 22.1539 20.4753C22.0901 20.5354 22.0152 20.5823 21.9333 20.6133L18.1933 22.04C18.1115 22.0711 18.0243 22.0858 17.9368 22.0831C17.8493 22.0805 17.7631 22.0607 17.6832 22.0248C17.6034 21.9889 17.5314 21.9376 17.4713 21.8739C17.4113 21.8101 17.3644 21.7352 17.3333 21.6533L14 12.8467V21.3333C14 21.5101 13.9298 21.6797 13.8047 21.8047C13.6797 21.9298 13.5101 22 13.3333 22H2.66667C2.48986 22 2.32029 21.9298 2.19526 21.8047C2.07024 21.6797 2 21.5101 2 21.3333V3.33333C2 2.97971 2.14048 2.64057 2.39052 2.39052C2.64057 2.14048 2.97971 2 3.33333 2H8.05333C8.39281 2 8.71838 2.13486 8.95843 2.3749C9.19848 2.61495 9.33333 2.94052 9.33333 3.28V4.66667H12.72C13.0595 4.66667 13.3851 4.80152 13.6251 5.04157C13.8651 5.28162 14 5.60719 14 5.94667V7.9L16.1067 7.10667C16.2704 7.04449 16.4447 7.01516 16.6198 7.02038C16.7948 7.02559 16.9671 7.06523 17.1269 7.13705C17.2866 7.20886 17.4306 7.31143 17.5507 7.43891C17.6707 7.56639 17.7645 7.71627 17.8267 7.88L20.0733 13.8167ZM7 13.5V5.94667V4H4V12V20.0099H7V13.5ZM9.33333 20.0099H12V6.5H9.33333V20.0099ZM16.5633 8.92074L14.1598 9.875L18.4615 20.71L20.8651 19.7558L16.5633 8.92074Z" fill="#7E7E7E"/>
<path d="M22.32 19.7533L20.9171 20.2842L20.9177 20.286L22.32 19.7533ZM20.0733 13.8167L21.4762 13.2858L20.0733 13.8167ZM21.9333 20.6133L21.4011 19.2109L21.3987 19.2118L21.9333 20.6133ZM18.1933 22.04L18.726 23.4423L18.728 23.4415L18.1933 22.04ZM17.9368 22.0831L17.9814 20.5838H17.9814L17.9368 22.0831ZM17.3333 21.6533L15.9305 22.1843L15.9309 22.1856L17.3333 21.6533ZM14 12.8467L15.4029 12.3157L12.5 12.8467H14ZM2.19526 21.8047L1.1346 22.8654H1.1346L2.19526 21.8047ZM2.39052 2.39052L1.32986 1.32986L1.32986 1.32986L2.39052 2.39052ZM9.33333 4.66667H7.83333V6.16667H9.33333V4.66667ZM14 7.9H12.5V10.0677L14.5286 9.30376L14 7.9ZM16.1067 7.10667L16.6353 8.51043L16.6393 8.50892L16.1067 7.10667ZM17.8267 7.88L19.2296 7.34909L19.2291 7.34774L17.8267 7.88ZM7 4H8.5V2.5H7V4ZM4 4V2.5H2.5V4H4ZM4 20.0099H2.5V21.5099H4V20.0099ZM7 20.0099V21.5099H8.5V20.0099H7ZM12 20.0099V21.5099H13.5V20.0099H12ZM9.33333 20.0099H7.83333V21.5099H9.33333V20.0099ZM12 6.5H13.5V5H12V6.5ZM9.33333 6.5V5H7.83333V6.5H9.33333ZM14.1598 9.875L13.6063 8.48086L12.2121 9.03436L12.7656 10.4285L14.1598 9.875ZM16.5633 8.92074L17.9575 8.36724L17.404 6.9731L16.0098 7.5266L16.5633 8.92074ZM18.4615 20.71L17.0674 21.2635L17.6209 22.6577L19.015 22.1042L18.4615 20.71ZM20.8651 19.7558L21.4186 21.1499L22.8127 20.5964L22.2592 19.2023L20.8651 19.7558ZM23.7229 19.2224L21.4762 13.2858L18.6704 14.3476L20.9171 20.2842L23.7229 19.2224ZM23.8625 20.0545C23.871 19.7701 23.8233 19.4867 23.7223 19.2207L20.9177 20.286C20.8789 20.1836 20.8606 20.0747 20.8638 19.9653L23.8625 20.0545ZM23.6729 20.8785C23.7896 20.619 23.854 20.339 23.8625 20.0545L20.8638 19.9653C20.8671 19.8558 20.8919 19.7481 20.9367 19.6483L23.6729 20.8785ZM23.1824 21.5672C23.3895 21.3721 23.5562 21.1381 23.6729 20.8785L20.9367 19.6483C20.9816 19.5485 21.0457 19.4585 21.1254 19.3835L23.1824 21.5672ZM22.4656 22.0157C22.7316 21.9147 22.9752 21.7624 23.1824 21.5672L21.1254 19.3835C21.2051 19.3084 21.2988 19.2498 21.4011 19.2109L22.4656 22.0157ZM18.728 23.4415L22.468 22.0148L21.3987 19.2118L17.6587 20.6385L18.728 23.4415ZM17.8921 23.5825C18.1765 23.5909 18.4599 23.5433 18.726 23.4423L17.6607 20.6377C17.7631 20.5989 17.8721 20.5806 17.9814 20.5838L17.8921 23.5825ZM17.0681 23.3929C17.3277 23.5096 17.6077 23.574 17.8921 23.5825L17.9814 20.5838C18.0908 20.5871 18.1985 20.6118 18.2983 20.6567L17.0681 23.3929ZM16.3795 22.9024C16.5746 23.1095 16.8086 23.2762 17.0681 23.3929L18.2983 20.6567C18.3982 20.7016 18.4882 20.7657 18.5632 20.8454L16.3795 22.9024ZM15.9309 22.1856C16.0319 22.4516 16.1843 22.6952 16.3795 22.9024L18.5632 20.8454C18.6383 20.9251 18.6969 21.0188 18.7357 21.1211L15.9309 22.1856ZM12.5971 13.3777L15.9305 22.1843L18.7362 21.1223L15.4029 12.3157L12.5971 13.3777ZM15.5 21.3333V12.8467H12.5V21.3333H15.5ZM14.8654 22.8654C15.2717 22.4591 15.5 21.908 15.5 21.3333H12.5C12.5 21.1123 12.5878 20.9004 12.7441 20.7441L14.8654 22.8654ZM13.3333 23.5C13.908 23.5 14.4591 23.2717 14.8654 22.8654L12.7441 20.7441C12.9004 20.5878 13.1123 20.5 13.3333 20.5V23.5ZM2.66667 23.5H13.3333V20.5H2.66667V23.5ZM1.1346 22.8654C1.54094 23.2717 2.09204 23.5 2.66667 23.5V20.5C2.88767 20.5 3.09964 20.5878 3.25592 20.7441L1.1346 22.8654ZM0.5 21.3333C0.5 21.908 0.728274 22.4591 1.1346 22.8654L3.25592 20.7441C3.4122 20.9004 3.5 21.1123 3.5 21.3333H0.5ZM0.5 3.33333V21.3333H3.5V3.33333H0.5ZM1.32986 1.32986C0.798511 1.86122 0.5 2.58189 0.5 3.33333H3.5C3.5 3.37754 3.48244 3.41993 3.45118 3.45118L1.32986 1.32986ZM3.33333 0.5C2.58189 0.5 1.86122 0.798511 1.32986 1.32986L3.45118 3.45118C3.41993 3.48244 3.37754 3.5 3.33333 3.5V0.5ZM8.05333 0.5H3.33333V3.5H8.05333V0.5ZM10.0191 1.31424C9.49774 0.792892 8.79063 0.5 8.05333 0.5V3.5C7.99499 3.5 7.93903 3.47682 7.89777 3.43556L10.0191 1.31424ZM10.8333 3.28C10.8333 2.5427 10.5404 1.83559 10.0191 1.31424L7.89777 3.43556C7.85651 3.39431 7.83333 3.33835 7.83333 3.28H10.8333ZM10.8333 4.66667V3.28H7.83333V4.66667H10.8333ZM12.72 3.16667H9.33333V6.16667H12.72V3.16667ZM14.6858 3.98091C14.1644 3.45956 13.4573 3.16667 12.72 3.16667V6.16667C12.6617 6.16667 12.6057 6.14349 12.5644 6.10223L14.6858 3.98091ZM15.5 5.94667C15.5 5.20937 15.2071 4.50226 14.6858 3.98091L12.5644 6.10223C12.5232 6.06097 12.5 6.00501 12.5 5.94667H15.5ZM15.5 7.9V5.94667H12.5V7.9H15.5ZM15.578 5.7029L13.4714 6.49624L14.5286 9.30376L16.6353 8.51043L15.578 5.7029ZM16.6644 5.52104C16.2925 5.50996 15.9219 5.57227 15.5741 5.70441L16.6393 8.50892C16.6188 8.5167 16.597 8.52036 16.5751 8.51971L16.6644 5.52104ZM17.742 5.76897C17.4026 5.61636 17.0364 5.53212 16.6644 5.52104L16.5751 8.51971C16.5533 8.51906 16.5317 8.5141 16.5118 8.50513L17.742 5.76897ZM18.6426 6.41043C18.3874 6.13954 18.0814 5.92157 17.742 5.76897L16.5118 8.50513C16.4918 8.49615 16.4738 8.48333 16.4588 8.46739L18.6426 6.41043ZM19.2291 7.34774C19.097 6.99982 18.8977 6.68132 18.6426 6.41043L16.4588 8.46739C16.4438 8.45146 16.432 8.43272 16.4243 8.41226L19.2291 7.34774ZM21.4762 13.2858L19.2296 7.34909L16.4238 8.41091L18.6704 14.3476L21.4762 13.2858ZM5.5 5.94667V13.5H8.5V5.94667H5.5ZM5.5 4V5.94667H8.5V4H5.5ZM4 5.5H7V2.5H4V5.5ZM5.5 12V4H2.5V12H5.5ZM5.5 20.0099V12H2.5V20.0099H5.5ZM7 18.5099H4V21.5099H7V18.5099ZM5.5 13.5V20.0099H8.5V13.5H5.5ZM12 18.5099H9.33333V21.5099H12V18.5099ZM10.5 6.5V20.0099H13.5V6.5H10.5ZM9.33333 8H12V5H9.33333V8ZM10.8333 20.0099V6.5H7.83333V20.0099H10.8333ZM14.7133 11.2691L17.1168 10.3149L16.0098 7.5266L13.6063 8.48086L14.7133 11.2691ZM19.8557 20.1565L15.5539 9.32149L12.7656 10.4285L17.0674 21.2635L19.8557 20.1565ZM20.3116 18.3616L17.908 19.3159L19.015 22.1042L21.4186 21.1499L20.3116 18.3616ZM15.1692 9.47425L19.4709 20.3093L22.2592 19.2023L17.9575 8.36724L15.1692 9.47425Z" fill="#7E7E7E" mask="url(#path-1-inside-1)"/>
</svg>
