<svg width="24" height="24" viewBox="0 0 24 24" fill="none" xmlns="http://www.w3.org/2000/svg">
<path d="M16 8.25V6.375C16 5.87772 15.8025 5.40081 15.4508 5.04917C15.0992 4.69754 14.6223 4.5 14.125 4.5H5.125C4.62772 4.5 4.15081 4.69754 3.79917 5.04917C3.44754 5.40081 3.25 5.87772 3.25 6.375V17.625C3.25 18.1223 3.44754 18.5992 3.79917 18.9508C4.15081 19.3025 4.62772 19.5 5.125 19.5H14.125C14.6223 19.5 15.0992 19.3025 15.4508 18.9508C15.8025 18.5992 16 18.1223 16 17.625V15.75" stroke="#3F3F3F" stroke-width="1.3" stroke-linecap="round" stroke-linejoin="round"/>
<path d="M19 8.25L22.75 12L19 15.75" stroke="#3F3F3F" stroke-width="1.3" stroke-linecap="round" stroke-linejoin="round"/>
<path d="M9.95312 12H22.75" stroke="#3F3F3F" stroke-width="1.3" stroke-linecap="round" stroke-linejoin="round"/>
</svg>
