<svg width="38" height="38" viewBox="0 0 38 38" fill="none" xmlns="http://www.w3.org/2000/svg">
<path d="M27.9062 24.6406C26.8486 24.6406 25.8727 25.0117 25.1082 25.6314L17.4191 20.0687C17.5479 19.3621 17.5479 18.6379 17.4191 17.9313L25.1082 12.3686C25.8727 12.9883 26.8486 13.3594 27.9062 13.3594C30.3629 13.3594 32.3594 11.3629 32.3594 8.90625C32.3594 6.44961 30.3629 4.45312 27.9062 4.45312C25.4496 4.45312 23.4531 6.44961 23.4531 8.90625C23.4531 9.33672 23.5125 9.74863 23.6275 10.142L16.3244 15.4301C15.2408 13.9939 13.5189 13.0625 11.5781 13.0625C8.29766 13.0625 5.64062 15.7195 5.64062 19C5.64062 22.2805 8.29766 24.9375 11.5781 24.9375C13.5189 24.9375 15.2408 24.0061 16.3244 22.5699L23.6275 27.858C23.5125 28.2514 23.4531 28.667 23.4531 29.0938C23.4531 31.5504 25.4496 33.5469 27.9062 33.5469C30.3629 33.5469 32.3594 31.5504 32.3594 29.0938C32.3594 26.6371 30.3629 24.6406 27.9062 24.6406ZM27.9062 6.97656C28.9713 6.97656 29.8359 7.84121 29.8359 8.90625C29.8359 9.97129 28.9713 10.8359 27.9062 10.8359C26.8412 10.8359 25.9766 9.97129 25.9766 8.90625C25.9766 7.84121 26.8412 6.97656 27.9062 6.97656ZM11.5781 22.2656C9.77832 22.2656 8.3125 20.7998 8.3125 19C8.3125 17.2002 9.77832 15.7344 11.5781 15.7344C13.3779 15.7344 14.8438 17.2002 14.8438 19C14.8438 20.7998 13.3779 22.2656 11.5781 22.2656ZM27.9062 31.0234C26.8412 31.0234 25.9766 30.1588 25.9766 29.0938C25.9766 28.0287 26.8412 27.1641 27.9062 27.1641C28.9713 27.1641 29.8359 28.0287 29.8359 29.0938C29.8359 30.1588 28.9713 31.0234 27.9062 31.0234Z" fill="#6C8A9B"/>
</svg>
