<svg width="24" height="24" viewBox="0 0 24 24" fill="none" xmlns="http://www.w3.org/2000/svg">
<path d="M21.2499 12.5696V11.9996V11.4221L22.6899 10.1621C22.9554 9.92811 23.1296 9.60784 23.1817 9.25787C23.2339 8.9079 23.1606 8.55076 22.9749 8.24957L21.2049 5.24957C21.0734 5.02177 20.8843 4.83256 20.6566 4.70092C20.4288 4.56928 20.1705 4.49984 19.9074 4.49957C19.7444 4.49832 19.5823 4.52366 19.4274 4.57457L17.6049 5.18957C17.2903 4.98048 16.9621 4.79256 16.6224 4.62707L16.2399 2.73707C16.1714 2.39178 15.9835 2.0816 15.7093 1.86085C15.4351 1.6401 15.0919 1.52283 14.7399 1.52957H11.2299C10.878 1.52283 10.5348 1.6401 10.2606 1.86085C9.98638 2.0816 9.79853 2.39178 9.72995 2.73707L9.34745 4.62707C9.0054 4.79252 8.67467 4.98043 8.35745 5.18957L6.57245 4.54457C6.41592 4.50379 6.25383 4.48859 6.09245 4.49957C5.8294 4.49984 5.57105 4.56928 5.34332 4.70092C5.11558 4.83256 4.92647 5.02177 4.79495 5.24957L3.02495 8.24957C2.84989 8.55031 2.78483 8.90257 2.84093 9.246C2.89703 9.58943 3.07079 9.90267 3.33245 10.1321L4.74995 11.4296V12.5771L3.33245 13.8371C3.0634 14.0681 2.88489 14.3869 2.82859 14.737C2.7723 15.0871 2.84187 15.4459 3.02495 15.7496L4.79495 18.7496C4.92647 18.9774 5.11558 19.1666 5.34332 19.2982C5.57105 19.4299 5.8294 19.4993 6.09245 19.4996C6.25546 19.5008 6.41758 19.4755 6.57245 19.4246L8.39495 18.8096C8.7096 19.0187 9.03783 19.2066 9.37745 19.3721L9.75995 21.2621C9.82853 21.6074 10.0164 21.9175 10.2906 22.1383C10.5648 22.3591 10.908 22.4763 11.2599 22.4696H14.7999C15.1519 22.4763 15.4951 22.3591 15.7693 22.1383C16.0435 21.9175 16.2314 21.6074 16.2999 21.2621L16.6824 19.3721C17.0245 19.2066 17.3552 19.0187 17.6724 18.8096L19.4874 19.4246C19.6423 19.4755 19.8044 19.5008 19.9674 19.4996C20.2305 19.4993 20.4888 19.4299 20.7166 19.2982C20.9443 19.1666 21.1334 18.9774 21.2649 18.7496L22.9749 15.7496C23.15 15.4488 23.2151 15.0966 23.159 14.7532C23.1029 14.4097 22.9291 14.0965 22.6674 13.8671L21.2499 12.5696ZM19.9074 17.9996L17.8704 17.3106C17.5381 17.1983 17.1746 17.273 16.8887 17.4761C16.5538 17.714 16.1976 17.9204 15.8246 18.0925C15.5064 18.2394 15.2609 18.5173 15.1929 18.8611L14.7699 20.9996H11.2299L10.8064 18.8819C10.7386 18.5431 10.4984 18.2681 10.1855 18.1214C9.80929 17.9452 9.44946 17.7358 9.11027 17.4959C8.82969 17.2974 8.47416 17.2241 8.14737 17.3305L6.09245 17.9996L4.32245 14.9996L5.94076 13.5716C6.2026 13.3406 6.31924 12.9902 6.28698 12.6425C6.24864 12.2291 6.24893 11.8131 6.28785 11.3999C6.32012 11.0573 6.2078 10.7116 5.95305 10.4803L4.32245 8.99957L6.09245 5.99957L8.12953 6.6885C8.46178 6.80086 8.82532 6.72616 9.11124 6.52303C9.4461 6.28513 9.80231 6.07878 10.1753 5.90665C10.4935 5.75979 10.739 5.4819 10.807 5.13809L11.2299 2.99957H14.7699L15.1935 5.11722C15.2612 5.45606 15.5015 5.73108 15.8144 5.8777C16.1906 6.054 16.5504 6.26335 16.8896 6.50328C17.1702 6.70175 17.5257 6.77502 17.8525 6.66862L19.9074 5.99957L21.6774 8.99957L20.0591 10.4275C19.7973 10.6585 19.6807 11.009 19.7129 11.3567C19.7513 11.77 19.751 12.186 19.712 12.5993C19.6798 12.9419 19.7921 13.2875 20.0468 13.5188L21.6774 14.9996L19.9074 17.9996Z" fill="#3F3F3F"/>
<path d="M13 16.5C12.11 16.5 11.24 16.2361 10.4999 15.7416C9.75991 15.2471 9.18314 14.5443 8.84254 13.7221C8.50195 12.8998 8.41283 11.995 8.58647 11.1221C8.7601 10.2492 9.18868 9.44736 9.81802 8.81802C10.4474 8.18868 11.2492 7.7601 12.1221 7.58647C12.995 7.41283 13.8998 7.50195 14.7221 7.84254C15.5443 8.18314 16.2471 8.75991 16.7416 9.49994C17.2361 10.24 17.5 11.11 17.5 12C17.506 12.5926 17.3937 13.1805 17.1697 13.7292C16.9457 14.2779 16.6145 14.7763 16.1954 15.1954C15.7763 15.6145 15.2779 15.9457 14.7292 16.1697C14.1805 16.3937 13.5926 16.506 13 16.5ZM13 9C12.6035 8.99077 12.2093 9.06205 11.8411 9.20954C11.473 9.35704 11.1386 9.57768 10.8581 9.85812C10.5777 10.1386 10.357 10.473 10.2095 10.8411C10.062 11.2093 9.99077 11.6035 10 12C9.99077 12.3965 10.062 12.7907 10.2095 13.1589C10.357 13.527 10.5777 13.8615 10.8581 14.1419C11.1386 14.4223 11.473 14.643 11.8411 14.7905C12.2093 14.938 12.6035 15.0092 13 15C13.3965 15.0092 13.7907 14.938 14.1589 14.7905C14.527 14.643 14.8615 14.4223 15.1419 14.1419C15.4223 13.8615 15.643 13.527 15.7905 13.1589C15.938 12.7907 16.0092 12.3965 16 12C16.0092 11.6035 15.938 11.2093 15.7905 10.8411C15.643 10.473 15.4223 10.1386 15.1419 9.85812C14.8615 9.57768 14.527 9.35704 14.1589 9.20954C13.7907 9.06205 13.3965 8.99077 13 9Z" fill="#3F3F3F"/>
</svg>
