<svg width="33" height="33" viewBox="0 0 33 33" fill="none" xmlns="http://www.w3.org/2000/svg">
<path d="M17.9759 16.4986L22.4309 12.0436C22.5811 11.8683 22.6596 11.6427 22.6507 11.412C22.6418 11.1813 22.5461 10.9625 22.3829 10.7992C22.2196 10.636 22.0008 10.5403 21.7701 10.5314C21.5394 10.5225 21.3138 10.601 21.1384 10.7511L16.6834 15.1603L12.2009 10.6778C12.0256 10.5276 11.8 10.4492 11.5693 10.4581C11.3386 10.467 11.1198 10.5626 10.9565 10.7259C10.7932 10.8891 10.6976 11.108 10.6887 11.3387C10.6798 11.5694 10.7583 11.795 10.9084 11.9703L15.3818 16.4986L11.0001 20.8253C10.9041 20.9075 10.8262 21.0086 10.7712 21.1223C10.7162 21.2361 10.6852 21.3599 10.6804 21.4862C10.6755 21.6124 10.6968 21.7383 10.7429 21.8559C10.7889 21.9736 10.8588 22.0804 10.9482 22.1697C11.0375 22.2591 11.1443 22.329 11.262 22.3751C11.3796 22.4212 11.5055 22.4424 11.6317 22.4375C11.758 22.4327 11.8818 22.4018 11.9956 22.3467C12.1093 22.2917 12.2104 22.2138 12.2926 22.1178L16.6651 17.7453L21.0101 22.0903C21.1855 22.2405 21.411 22.319 21.6417 22.3101C21.8724 22.3011 22.0913 22.2055 22.2545 22.0422C22.4178 21.879 22.5134 21.6601 22.5223 21.4294C22.5312 21.1987 22.4528 20.9732 22.3026 20.7978L17.9759 16.4986Z" fill="#6C8A9B"/>
<path d="M16.4997 31.1667C13.5989 31.1667 10.7632 30.3065 8.35132 28.6949C5.9394 27.0833 4.05953 24.7927 2.94945 22.1127C1.83936 19.4328 1.54891 16.4838 2.11483 13.6387C2.68075 10.7937 4.07761 8.18032 6.12878 6.12915C8.17995 4.07798 10.7933 2.68111 13.6384 2.1152C16.4834 1.54928 19.4324 1.83973 22.1124 2.94981C24.7924 4.0599 27.083 5.93976 28.6946 8.35168C30.3062 10.7636 31.1663 13.5993 31.1663 16.5C31.1663 20.3899 29.6211 24.1204 26.8706 26.8709C24.12 29.6215 20.3895 31.1667 16.4997 31.1667ZM16.4997 3.66671C13.9615 3.66671 11.4803 4.41938 9.36986 5.82952C7.25943 7.23967 5.61455 9.24396 4.64323 11.5889C3.6719 13.9339 3.41776 16.5143 3.91294 19.0037C4.40811 21.4931 5.63037 23.7798 7.42514 25.5746C9.21992 27.3694 11.5066 28.5916 13.996 29.0868C16.4854 29.582 19.0658 29.3278 21.4108 28.3565C23.7558 27.3852 25.7601 25.7403 27.1702 23.6299C28.5804 21.5194 29.333 19.0382 29.333 16.5C29.333 13.0964 27.9809 9.83223 25.5742 7.42551C23.1675 5.01879 19.9033 3.66671 16.4997 3.66671Z" fill="#6C8A9B"/>
</svg>
